<svg xmlns="http://www.w3.org/2000/svg" width="318.025" height="126.386" viewBox="0 0 318.025 126.386"><defs><style>.a{fill:#fff;}.b{fill:#ac2022;}</style></defs><g transform="translate(0)"><g transform="translate(162.854 37.816)"><g transform="translate(0)"><path class="a" d="M515.779,453.458h8.076l-4.316,19.586h-8.091Zm.557-2.522,1.47-6.575H525.9l-1.485,6.575Z" transform="translate(-511.447 -444.33)"/><path class="a" d="M535.822,473l4.347-19.586,13.707-.015.681,2.862.681-2.862,7.441.015L558.347,473h-8.6l-3.527-12.144L543.526,473ZM540.7,450.89l1.47-6.606h9.653l1.5,6.606Zm15.084,0,1.5-6.606,7.41.016-1.454,6.59Z" transform="translate(-525.983 -444.284)"/><path class="a" d="M608.464,460.76l1.655-7.364h13.443l-4.332,19.586H600.853l-5.09-15.727L606.84,444.3l18.75-.016-1.516,6.668H611.341l-6.467,6.784,2.058,7.247h6.435l.928-4.223Z" transform="translate(-561.728 -444.284)"/><path class="a" d="M662.641,444.284h9.468l1.423,6.575h-9.267Zm26.5,9.081.634,2.8.635-2.769h7.519L693.613,473h-8.648l-3.434-12.933L678.684,473H670.02l-5-19.586,9.19-.015.634,2.769.65-2.8Zm-11.572-9.081h9.483l1.47,6.652H676.038Zm13.4,6.652,1.454-6.652h7.565l-1.516,6.652Z" transform="translate(-601.61 -444.284)"/><path class="a" d="M747.892,453.381h19.957l-1.547,7.286H754.081l-.959,4.224h12.206l-1.779,8.091-20,.015Zm0,0h19.957l-1.547,7.286H754.081l-.959,4.224h12.206l-1.779,8.091-20,.015Zm2-9.081,20.019-.016-1.5,6.622h-20Zm0,0,20.019-.016-1.5,6.622h-20Z" transform="translate(-649.856 -444.284)"/><path class="a" d="M800.881,453.458h8.076l-4.316,19.586h-8.091Zm.557-2.522,1.469-6.575H811l-1.485,6.575Z" transform="translate(-681.465 -444.33)"/></g><g transform="translate(56.222 39.884)"><path class="b" d="M668.666,564.044l.268,1.341h-5.228l.268-1.341V552.425l-2.1,8.106v1.152h-4.252v-1.152l-1.935-7.4v10.916l.268,1.341h-5.227l.268-1.341V544.431l-.268-1.341h5.227l3.793,11.771,3.793-11.771.194.141-.028-.141h5.228l-.268,1.341Z" transform="translate(-650.727 -543.09)"/><path class="b" d="M716.41,545.7v18.074a1.984,1.984,0,0,1-1.984,1.984h-10.2a2.008,2.008,0,0,1-2.008-2.008V545.722a2.008,2.008,0,0,1,2.008-2.008h10.2A1.984,1.984,0,0,1,716.41,545.7Zm-4.691,14.865V548.908a.5.5,0,0,0-.5-.5h-3.808a.5.5,0,0,0-.5.5v11.656a.5.5,0,0,0,.5.5h3.808a.5.5,0,0,0,.5-.5Z" transform="translate(-681.431 -543.462)"/><path class="b" d="M755.2,543.715l-.268,1.341v2.813H750.2v16.547l.268,1.341h-5.227l.268-1.341V547.869h-4.728v-2.813l-.268-1.341Z" transform="translate(-704.272 -543.463)"/><path class="b" d="M794.193,545.7v18.074a1.984,1.984,0,0,1-1.984,1.984h-10.2A2.008,2.008,0,0,1,780,563.749V545.722a2.008,2.008,0,0,1,2.008-2.008h10.2A1.985,1.985,0,0,1,794.193,545.7ZM789.5,560.564V548.908a.5.5,0,0,0-.5-.5h-3.808a.5.5,0,0,0-.5.5v11.656a.5.5,0,0,0,.5.5H789a.5.5,0,0,0,.5-.5Z" transform="translate(-727.816 -543.462)"/><path class="b" d="M830.935,564.417l-3.219-7.178h-1.239v7.178l.268,1.341h-5.227l.268-1.341v-19.36l-.268-1.341H832.93a1.964,1.964,0,0,1,1.964,1.964v9.369a1.973,1.973,0,0,1-1.985,1.973h-.227l3.48,7.4.269,1.341h-5.524Zm-.732-11.906v-3.662a.443.443,0,0,0-.443-.443h-3.283v4.548h3.283A.443.443,0,0,0,830.2,552.511Z" transform="translate(-752.577 -543.463)"/><path class="b" d="M875.678,555.542v8.207a2.008,2.008,0,0,1-2.008,2.008h-9.4a1.984,1.984,0,0,1-1.985-1.984v-4.351l-.268-1.341h5.227l-.268,1.341v1.142a.5.5,0,0,0,.5.5h3a.5.5,0,0,0,.5-.5v-3.433l-6.819-1.7a2.38,2.38,0,0,1-1.805-2.31v-7.4a2.008,2.008,0,0,1,2.008-2.008h8.968a1.985,1.985,0,0,1,1.985,1.984v3.749l.268,1.341h-5.228l.268-1.341v-.54a.5.5,0,0,0-.5-.5h-2.575a.5.5,0,0,0-.5.5v2.628l6.819,1.7A2.38,2.38,0,0,1,875.678,555.542Z" transform="translate(-776.729 -543.462)"/></g></g><path class="b" d="M294.048,388.087H240.862l-4.926-4.121h53.186Z" transform="translate(-207.941 -383.965)"/><path class="b" d="M306.762,402.086H253.576l-3.04-3.521h53.186Z" transform="translate(-215.335 -391.84)"/><path class="b" d="M318.539,413.382H265.353l-4.037-4.038H314.5Z" transform="translate(-220.795 -396.818)"/><path class="b" d="M278.153,426.182l-4.037-4.037H327.3l4.037,4.037Z" transform="translate(-227.277 -403.301)"/><path class="b" d="M290.953,438.983l-4.037-4.037H340.1l4.037,4.037Z" transform="translate(-233.759 -409.783)"/><path class="b" d="M303.753,451.782l-4.037-4.037H352.9l4.037,4.037Z" transform="translate(-240.242 -416.266)"/><path class="b" d="M315.556,463.585l-3.04-3.04H365.7l3.04,3.04Z" transform="translate(-246.724 -422.748)"/><path class="b" d="M327.334,475.363l-4.037-4.037h53.186l4.037,4.037Z" transform="translate(-252.184 -428.208)"/><path class="b" d="M385.276,533.3h3.6l-1.8,1.8Z" transform="translate(-283.573 -459.597)"/><path class="b" d="M388.74,522.525l-3.04,3.041h-8.163l-3.04-3.041Z" transform="translate(-278.114 -454.137)"/><path class="b" d="M388.58,509.725l-4.042,4.037h-18.8l-4.037-4.037Z" transform="translate(-271.631 -447.655)"/><path class="b" d="M388.415,496.925l-4.037,4.037H352.933l-4.037-4.037Z" transform="translate(-265.149 -441.173)"/><path class="b" d="M388.251,484.125l-4.037,4.037h-44.08l-4.037-4.037Z" transform="translate(-258.666 -434.69)"/><path class="a" d="M470.944,383.965l-43.675,43.67L406.48,406.846l-4.037-4.037-1.767-1.767.513-.513,6.318-6.318,3.04-3.04.143-.143,7.063-7.063Z" transform="translate(-291.372 -383.965)"/><path class="a" d="M472.07,539.63l-.291.291H419.17l-18.494-18.494,26.593-26.593Z" transform="translate(-291.372 -440.114)"/><path class="b" d="M182.35,633.685h53.186l-3.134,3.134H179.216Z" transform="translate(-179.216 -510.433)"/><path class="b" d="M247.409,620.885l-4.037,4.037H190.186l4.037-4.037Z" transform="translate(-184.772 -503.951)"/><path class="b" d="M260.209,608.085l-4.037,4.037H202.986l4.037-4.037Z" transform="translate(-191.254 -497.468)"/><path class="b" d="M273.009,595.285l-4.037,4.037H215.786l4.037-4.037Z" transform="translate(-197.736 -490.986)"/><path class="b" d="M284.812,584.5l-3.04,3.04H228.586l3.04-3.04Z" transform="translate(-204.219 -485.526)"/><path class="b" d="M296.589,571.705l-4.037,4.037H239.366l4.037-4.037Z" transform="translate(-209.678 -479.044)"/><path class="b" d="M309.389,558.905l-4.037,4.037H252.166l4.042-4.037Z" transform="translate(-216.161 -472.562)"/><path class="b" d="M322.194,546.1l-4.037,4.037H264.976l4.037-4.037Z" transform="translate(-222.648 -466.079)"/><path class="b" d="M334.994,533.3l-4.037,4.037H277.776l4.037-4.037Z" transform="translate(-229.131 -459.597)"/><path class="b" d="M346.8,522.525l-3.04,3.041H290.576l3.04-3.041Z" transform="translate(-235.613 -454.137)"/><path class="b" d="M358.575,509.725l-4.037,4.037H301.356l4.037-4.037Z" transform="translate(-241.073 -447.655)"/><path class="b" d="M371.374,496.925l-4.037,4.037H314.156l4.037-4.037Z" transform="translate(-247.555 -441.173)"/><path class="b" d="M383.9,487.447l-3.76,4.037H326.956l4.037-4.037h52.9Z" transform="translate(-254.037 -438.012)"/><path class="b" d="M420.819,398.275v.143h-.143Z" transform="translate(-301.501 -391.212)"/></g></svg>