<svg xmlns="http://www.w3.org/2000/svg" xmlns:xlink="http://www.w3.org/1999/xlink" width="124" height="91" viewBox="0 0 124 91">
  <defs>
    <filter id="Rectangle_8587" x="-15" y="-11" width="154" height="121" filterUnits="userSpaceOnUse">
      <feOffset dy="4" input="SourceAlpha"/>
      <feGaussianBlur stdDeviation="5" result="blur"/>
      <feFlood flood-opacity="0.102"/>
      <feComposite operator="in" in2="blur"/>
      <feComposite in="SourceGraphic"/>
    </filter>
    <clipPath id="clip-path">
      <g transform="matrix(1, 0, 0, 1, 0, 0)" filter="url(#Rectangle_8587)">
        <rect id="Rectangle_8587-2" data-name="Rectangle 8587" width="124" height="91" rx="4" transform="translate(0.27)" fill="#675df0"/>
      </g>
    </clipPath>
  </defs>
  <g id="Mask_Group_12836" data-name="Mask Group 12836" transform="translate(-0.267)" clip-path="url(#clip-path)">
    <g id="Group_13890" data-name="Group 13890" transform="translate(0 0.619)">
      <circle id="Ellipse_30" data-name="Ellipse 30" cx="30.5" cy="30.5" r="30.5" transform="translate(0.267 17.382)" fill="#fff" opacity="0.1"/>
      <circle id="Ellipse_31" data-name="Ellipse 31" cx="17.5" cy="17.5" r="17.5" transform="translate(34.267 6.382)" fill="#fff" opacity="0.1"/>
      <circle id="Ellipse_32" data-name="Ellipse 32" cx="17" cy="17" r="17" transform="translate(101.267 72.382)" fill="#fff" opacity="0.1"/>
      <g id="Group_13889" data-name="Group 13889" transform="translate(13.148 0)">
        <g id="XMLID_110_" transform="translate(0 25.187)">
          <g id="XMLID_140_" transform="translate(0 64.296)">
            <path id="Path_10033" data-name="Path 10033" d="M99.573,598.5H.449a.449.449,0,0,1,0-.9H99.573a.449.449,0,0,1,0,.9Z" transform="translate(0 -597.6)" fill="#fff"/>
          </g>
          <g id="XMLID_111_" transform="translate(2.516)">
            <g id="XMLID_139_" transform="translate(81.859 15.587)">
              <path id="Path_10034" data-name="Path 10034" d="M563.949,321.907a.449.449,0,0,1-.449-.449V272.749a.449.449,0,1,1,.9,0v48.708A.449.449,0,0,1,563.949,321.907Z" transform="translate(-563.5 -272.3)" fill="#fff"/>
            </g>
            <g id="XMLID_138_" transform="translate(72.054)">
              <path id="Path_10035" data-name="Path 10035" d="M508.268,206.337c-4.122,0-7.054-1.71-8.715-5.08-4.342-8.812,1.581-26.78,4.45-30.516a4.848,4.848,0,0,1,8.527,0h0c2.872,3.722,8.8,21.668,4.459,30.5C515.33,204.624,512.4,206.337,508.268,206.337Zm0-37.239a4.927,4.927,0,0,0-3.553,2.191c-1.333,1.735-3.474,7.034-4.747,12.9-1.544,7.108-1.4,13.028.391,16.673,1.5,3.038,4.158,4.579,7.909,4.579s6.419-1.545,7.916-4.591c1.792-3.648,1.93-9.568.388-16.67-1.274-5.864-3.417-11.158-4.751-12.889A4.933,4.933,0,0,0,508.268,169.1Z" transform="translate(-498.014 -168.2)" fill="#fff"/>
            </g>
            <g id="XMLID_137_" transform="translate(81.86 19.316)">
              <path id="Path_10036" data-name="Path 10036" d="M563.951,301.874a.443.443,0,0,1-.317-.132.449.449,0,0,1,0-.635l3.773-3.773a.449.449,0,0,1,.635.635l-3.773,3.773A.443.443,0,0,1,563.951,301.874Z" transform="translate(-563.503 -297.202)" fill="#fff"/>
            </g>
            <g id="XMLID_136_" transform="translate(76.724 26.743)">
              <path id="Path_10037" data-name="Path 10037" d="M534.787,352.836a.443.443,0,0,1-.317-.132l-5.136-5.136a.449.449,0,1,1,.635-.635l5.136,5.136a.449.449,0,0,1,0,.635A.443.443,0,0,1,534.787,352.836Z" transform="translate(-529.203 -346.802)" fill="#fff"/>
            </g>
            <g id="XMLID_135_" transform="translate(87.37 28.659)">
              <circle id="Ellipse_29" data-name="Ellipse 29" cx="7.397" cy="7.397" r="7.397" fill="#009ce6" opacity="0.6"/>
            </g>
            <g id="XMLID_133_" transform="translate(86.92 28.21)">
              <path id="Path_10038" data-name="Path 10038" d="M605.146,372.292a7.846,7.846,0,1,1,7.846-7.846A7.856,7.856,0,0,1,605.146,372.292Zm0-14.794a6.948,6.948,0,1,0,6.948,6.948A6.956,6.956,0,0,0,605.146,357.5Z" transform="translate(-597.3 -356.6)" fill="#fff"/>
            </g>
            <g id="XMLID_132_" transform="translate(81.86 34.379)">
              <path id="Path_10039" data-name="Path 10039" d="M563.951,412.386a.443.443,0,0,1-.317-.132.449.449,0,0,1,0-.635l13.686-13.686a.449.449,0,1,1,.635.635l-13.686,13.686A.443.443,0,0,1,563.951,412.386Z" transform="translate(-563.503 -397.803)" fill="#fff"/>
            </g>
            <g id="XMLID_131_" transform="translate(89.975 39.949)">
              <path id="Path_10040" data-name="Path 10040" d="M624,435.9h-5.855a.449.449,0,1,1,0-.9H624a.449.449,0,1,1,0,.9Z" transform="translate(-617.7 -435)" fill="#fff"/>
            </g>
            <g id="XMLID_130_" transform="translate(92.91 34.379)">
              <path id="Path_10041" data-name="Path 10041" d="M637.749,401.334a.449.449,0,0,1-.449-.449v-2.635a.449.449,0,1,1,.9,0v2.635A.449.449,0,0,1,637.749,401.334Z" transform="translate(-637.3 -397.8)" fill="#fff"/>
            </g>
            <g id="XMLID_129_" transform="translate(69.582 44.681)">
              <path id="Path_10042" data-name="Path 10042" d="M494.229,479.794a.443.443,0,0,1-.317-.132l-12.278-12.293a.449.449,0,0,1,.635-.635l12.278,12.293a.449.449,0,0,1-.317.767Z" transform="translate(-481.503 -466.603)" fill="#fff"/>
            </g>
            <g id="XMLID_128_" transform="translate(64.007 37.653)">
              <path id="Path_10043" data-name="Path 10043" d="M454.055,436.288a9.883,9.883,0,0,1-7.514-4.219c-3.008-3.987-3.026-9.065-.04-11.317h0a6.036,6.036,0,0,1,5.494-.756,11.366,11.366,0,0,1,7.653,10.146,6.04,6.04,0,0,1-2.235,5.074A5.488,5.488,0,0,1,454.055,436.288Zm-7.012-14.818c-2.59,1.954-2.493,6.466.217,10.058s7.021,4.925,9.611,2.971a5.165,5.165,0,0,0,1.878-4.347,10.47,10.47,0,0,0-7.012-9.3,5.166,5.166,0,0,0-4.694.614Z" transform="translate(-444.273 -419.668)" fill="#fff"/>
            </g>
            <g id="XMLID_127_" transform="translate(75.765 46.897)">
              <path id="Path_10044" data-name="Path 10044" d="M523.249,486.266a.449.449,0,0,1-.449-.449v-3.968a.449.449,0,1,1,.9,0v3.968A.449.449,0,0,1,523.249,486.266Z" transform="translate(-522.8 -481.4)" fill="#fff"/>
            </g>
            <g id="XMLID_126_" transform="translate(69.581 47.72)">
              <path id="Path_10045" data-name="Path 10045" d="M484.989,487.8h-3.04a.449.449,0,0,1,0-.9h3.04a.449.449,0,0,1,0,.9Z" transform="translate(-481.5 -486.9)" fill="#fff"/>
            </g>
            <g id="XMLID_124_" transform="translate(7.876 55.491)">
              <path id="Path_10046" data-name="Path 10046" d="M73.188,547.964H69.849a.449.449,0,0,1-.449-.449v-8.265a.449.449,0,0,1,.449-.449h3.339a.449.449,0,0,1,.449.449v8.265A.449.449,0,0,1,73.188,547.964Zm-2.89-.9h2.441V539.7H70.3Z" transform="translate(-69.4 -538.8)" fill="#fff"/>
            </g>
            <g id="XMLID_123_" transform="translate(42.405 55.491)">
              <path id="Path_10047" data-name="Path 10047" d="M303.788,547.964h-3.339a.449.449,0,0,1-.449-.449v-8.265a.449.449,0,0,1,.449-.449h3.339a.449.449,0,0,1,.449.449v8.265A.449.449,0,0,1,303.788,547.964Zm-2.89-.9h2.441V539.7H300.9Z" transform="translate(-300 -538.8)" fill="#fff"/>
            </g>
            <g id="XMLID_122_" transform="translate(10.017 34.019)">
              <path id="Path_10048" data-name="Path 10048" d="M86.485,414.012H84.149a.449.449,0,0,1-.449-.449V395.849a.449.449,0,0,1,.449-.449h2.336a.449.449,0,0,1,.449.449v17.713A.449.449,0,0,1,86.485,414.012Zm-1.887-.9h1.437V396.3H84.6Z" transform="translate(-83.7 -395.4)" fill="#fff"/>
            </g>
            <g id="XMLID_121_" transform="translate(41.252 34.019)">
              <path id="Path_10049" data-name="Path 10049" d="M295.085,414.012h-2.336a.449.449,0,0,1-.449-.449V395.849a.449.449,0,0,1,.449-.449h2.336a.449.449,0,0,1,.449.449v17.713A.449.449,0,0,1,295.085,414.012Zm-1.887-.9h1.437V396.3H293.2Z" transform="translate(-292.3 -395.4)" fill="#fff"/>
            </g>
            <g id="XMLID_120_" transform="translate(2.845 37.164)">
              <rect id="Rectangle_8583" data-name="Rectangle 8583" width="46.762" height="5.016" fill="#00adff" opacity="0.56"/>
            </g>
            <g id="XMLID_119_" transform="translate(2.396 36.715)">
              <path id="Path_10050" data-name="Path 10050" d="M80.011,419.314H33.249a.449.449,0,0,1-.449-.449v-5.016a.449.449,0,0,1,.449-.449H80.011a.449.449,0,0,1,.449.449v5.016A.449.449,0,0,1,80.011,419.314Zm-46.313-.9H79.562V414.3H33.7Z" transform="translate(-32.8 -413.4)" fill="#fff"/>
            </g>
            <g id="XMLID_118_" transform="translate(0.209 42.18)">
              <rect id="Rectangle_8584" data-name="Rectangle 8584" width="46.762" height="5.016" transform="translate(2.636)" fill="#00adff" opacity="0.56"/>
              <rect id="Rectangle_8586" data-name="Rectangle 8586" width="46.762" height="3.259" transform="translate(0 10.543)" fill="#00adff" opacity="0.56"/>
            </g>
            <g id="XMLID_117_" transform="translate(2.396 41.731)">
              <path id="Path_10051" data-name="Path 10051" d="M80.011,452.815H33.249a.449.449,0,0,1-.449-.449v-5.016a.449.449,0,0,1,.449-.449H80.011a.449.449,0,0,1,.449.449v5.016A.449.449,0,0,1,80.011,452.815Zm-46.313-.9H79.562V447.8H33.7Z" transform="translate(-32.8 -446.9)" fill="#fff"/>
            </g>
            <g id="XMLID_116_" transform="translate(41.746 38.736)">
              <path id="Path_10052" data-name="Path 10052" d="M296.723,429.146a1.123,1.123,0,1,1,1.123-1.123A1.123,1.123,0,0,1,296.723,429.146Zm0-1.348a.225.225,0,1,0,.225.225A.224.224,0,0,0,296.723,427.8Z" transform="translate(-295.6 -426.9)" fill="#fff"/>
            </g>
            <g id="XMLID_115_" transform="translate(41.746 43.558)">
              <path id="Path_10053" data-name="Path 10053" d="M296.723,461.346a1.123,1.123,0,1,1,1.123-1.123A1.123,1.123,0,0,1,296.723,461.346Zm0-1.348a.225.225,0,1,0,.225.225A.224.224,0,0,0,296.723,460Z" transform="translate(-295.6 -459.1)" fill="#fff"/>
            </g>
            <g id="XMLID_114_" transform="translate(10.526 38.736)">
              <path id="Path_10054" data-name="Path 10054" d="M88.223,429.146a1.123,1.123,0,1,1,1.123-1.123A1.123,1.123,0,0,1,88.223,429.146Zm0-1.348a.225.225,0,1,0,.225.225A.224.224,0,0,0,88.223,427.8Z" transform="translate(-87.1 -426.9)" fill="#fff"/>
            </g>
            <g id="XMLID_113_" transform="translate(10.526 43.558)">
              <path id="Path_10055" data-name="Path 10055" d="M88.223,461.346a1.123,1.123,0,1,1,1.123-1.123A1.123,1.123,0,0,1,88.223,461.346Zm0-1.348a.225.225,0,1,0,.225.225A.224.224,0,0,0,88.223,460Z" transform="translate(-87.1 -459.1)" fill="#fff"/>
            </g>
            <g id="XMLID_112_" transform="translate(0 51.733)">
              <path id="Path_10056" data-name="Path 10056" d="M70.18,518.372H17.249a.449.449,0,0,1-.449-.449v-3.773a.449.449,0,0,1,.449-.449H70.18a.449.449,0,0,1,.449.449v3.773A.449.449,0,0,1,70.18,518.372Zm-52.482-.9H69.731V514.6H17.7Z" transform="translate(-16.8 -513.7)" fill="#fff"/>
            </g>
          </g>
        </g>
        <g id="Group_13888" data-name="Group 13888" transform="translate(28.491)">
          <g id="XMLID_109_" transform="translate(9.841 84.527)">
            <path id="Path_10057" data-name="Path 10057" d="M256,564.5l.6,4.282a1.373,1.373,0,0,0,1.408,1.123h19.2a1.373,1.373,0,0,0,1.408-1.123l.6-4.282Z" transform="translate(-256 -564.5)" fill="#d6d6d4"/>
          </g>
          <g id="XMLID_105_" transform="translate(9.841 84.527)">
            <path id="Path_10058" data-name="Path 10058" d="M276.768,569.905l1.392-.359,1.018-5.046H256l.225,1.647h19.166C278.131,566.147,276.768,569.905,276.768,569.905Z" transform="translate(-256 -564.5)" fill="#bababa"/>
          </g>
          <g id="XMLID_101_" transform="translate(2.279 41.224)">
            <path id="Path_10059" data-name="Path 10059" d="M238.561,317.151,243.8,275.3H205.5l5.241,41.851a1.683,1.683,0,0,0,1.677,1.452H236.9A1.655,1.655,0,0,0,238.561,317.151Z" transform="translate(-205.5 -275.3)" fill="#00adff"/>
          </g>
          <g id="XMLID_95_" transform="translate(13.178 69.044)">
            <g id="XMLID_100_" transform="translate(5.884 2.755)" opacity="0.34">
              <path id="Path_10060" data-name="Path 10060" d="M318.888,483.183a1.335,1.335,0,0,1-.764-.269,1.647,1.647,0,0,1-.539-1.258,2.258,2.258,0,0,1,.629-1.707,1.441,1.441,0,0,1,.913-.449.415.415,0,0,1,.135.015,1.144,1.144,0,0,1,.779.569,2.291,2.291,0,0,1,.3,1.737,1.717,1.717,0,0,1-1.422,1.378Zm.15-2.066c-.135.315-.1.509-.06.554a.015.015,0,0,1,.015.015.458.458,0,0,0,.075-.135A.705.705,0,0,0,319.038,481.117Z" transform="translate(-317.583 -479.5)" fill="#008ed1"/>
            </g>
            <g id="XMLID_99_" transform="translate(6.719)" opacity="0.34">
              <path id="Path_10061" data-name="Path 10061" d="M325.368,469.4a.955.955,0,0,1-.539-.165c-.329-.225-.314-.524-.225-1.617.06-.689.15-1.752.225-3.4,0-.09.015-.165.015-.255h-.135a2.889,2.889,0,0,1-.359.015,2.922,2.922,0,0,0-.374.03c-.045,0-.09.015-.135.015a1.289,1.289,0,0,1-.225.015.44.44,0,0,1-.329-.135c-.314-.314.03-.988.285-1.243a1.2,1.2,0,0,1,.839-.3,3.219,3.219,0,0,1,.689.09,2.014,2.014,0,0,1,.7-1.033,1.511,1.511,0,0,1,.883-.314.73.73,0,0,1,.18.015,1.152,1.152,0,0,1,.614.284,1.042,1.042,0,0,1,.284.734,1.06,1.06,0,0,1,.389-.075.616.616,0,0,1,.165.015.9.9,0,0,1,.554.27,1.064,1.064,0,0,1,.24.928l-.06.255a.326.326,0,0,0,.12-.075.639.639,0,0,0,.165-.419l.045-.614.764.719.03.045c.135.269.045.614-.27,1a1.613,1.613,0,0,1-1.318.419,5.411,5.411,0,0,1-.659-.045,12.8,12.8,0,0,0-.075,1.542c.015.3.015.584.03.824.045,1.333.06,1.872-.359,2.186a.955.955,0,0,1-.539.165h0a.836.836,0,0,1-.494-.15.54.54,0,0,1-.255-.419.908.908,0,0,1-.314.434A.637.637,0,0,1,325.368,469.4Zm1.018-5.106c-.06.749-.045,1.467-.045,1.467.015.344.015.659.03.943,0,.12.015.225.015.329.045-.554.09-1.273.135-2.231a4.532,4.532,0,0,1,.03-.464C326.491,464.319,326.446,464.3,326.386,464.289Zm1.932-.734a3.115,3.115,0,0,0,.449.06.415.415,0,0,0,.135-.015l-.195-.1a.391.391,0,0,0-.165-.045H328.5A.383.383,0,0,0,328.318,463.556Zm-1.467-.494a1.744,1.744,0,0,1,.284-.464h-.09a.615.615,0,0,0-.3.195.626.626,0,0,0-.12.195A1.96,1.96,0,0,1,326.85,463.062Z" transform="translate(-323.161 -461.1)" fill="#008ed1"/>
            </g>
            <g id="XMLID_98_" transform="translate(11.158 3.099)" opacity="0.34">
              <path id="Path_10062" data-name="Path 10062" d="M353.962,485.513a1.171,1.171,0,0,1-.839-.3,1.524,1.524,0,0,1-.255-1.408,2.592,2.592,0,0,1,1.363-1.872,1.837,1.837,0,0,1,.659-.135,1.153,1.153,0,0,1,.719.24,1.214,1.214,0,0,1,.329,1.228,1.289,1.289,0,0,1-.719.809.343.343,0,0,1,.075.21,1.123,1.123,0,0,1-.344.839A1.378,1.378,0,0,1,353.962,485.513Zm.764-2.53a.561.561,0,0,0-.15.09A1.319,1.319,0,0,0,354.726,482.983Z" transform="translate(-352.811 -481.8)" fill="#008ed1"/>
            </g>
            <g id="XMLID_97_" transform="translate(13.525 3.504)" opacity="0.34">
              <path id="Path_10063" data-name="Path 10063" d="M369.813,487.869a1.184,1.184,0,0,1-.883-.344,1.516,1.516,0,0,1-.269-1.348,2.152,2.152,0,0,1,1.138-1.557,1.8,1.8,0,0,1,.629-.12.994.994,0,0,1,.794.314,1.144,1.144,0,0,1,.165,1.048,1.279,1.279,0,0,1-.554.719.313.313,0,0,1,.09.225,1.023,1.023,0,0,1-.329.764A1.049,1.049,0,0,1,369.813,487.869Z" transform="translate(-368.617 -484.5)" fill="#008ed1"/>
            </g>
            <g id="XMLID_96_" transform="translate(0 0.674)" opacity="0.34">
              <path id="Path_10064" data-name="Path 10064" d="M282.049,472.982a2.136,2.136,0,0,1-.689-.1,2.723,2.723,0,0,1-1.692-1.722,4.144,4.144,0,0,1,.284-3.264,1.983,1.983,0,0,0-.6.27,1.064,1.064,0,0,1-.539.21.493.493,0,0,1-.284-.09.8.8,0,0,1-.24-.674,1.307,1.307,0,0,1,.584-1.078,1.011,1.011,0,0,1,.524-.135,3.451,3.451,0,0,1,1.3.389,3.518,3.518,0,0,1,1.512-1.033,3.109,3.109,0,0,1,.854-.15,1.151,1.151,0,0,1,.9.344,1.6,1.6,0,0,1-.225,1.962,1.923,1.923,0,0,1-1.393.614h-.12a2.4,2.4,0,0,1-.794-.15c-.075-.015-.135-.045-.195-.06a2.616,2.616,0,0,0,.329,2.486,1.143,1.143,0,0,0,.674.255.562.562,0,0,0,.165-.015c.015,0,.419-.1.494-.419a.518.518,0,0,0-.075-.449.652.652,0,0,0-.24-.15.383.383,0,0,1-.3-.389c.03-.285.389-.419.7-.419a1.649,1.649,0,0,1,.27.03,1.785,1.785,0,0,1,1.033,2.006,2.031,2.031,0,0,1-.853,1.243,2.064,2.064,0,0,1-1.393.494Zm-.284-5.66a.955.955,0,0,0,.419.135h.09a.745.745,0,0,0,.629-.419c.045-.12.03-.24,0-.255a.231.231,0,0,0-.12-.03,1.194,1.194,0,0,0-.554.165l-.015.015A1.558,1.558,0,0,0,281.765,467.322Z" transform="translate(-278.289 -465.6)" fill="#008ed1"/>
            </g>
          </g>
          <g id="XMLID_94_" transform="translate(2.279 41.224)">
            <path id="Path_10065" data-name="Path 10065" d="M205.5,275.3l.4,3.294h31.863a2.024,2.024,0,0,1,2.006,2.276l-3.324,34.439a2.989,2.989,0,0,1-2.426,2.635l-3.743.674h6.6a1.67,1.67,0,0,0,1.677-1.452l5.241-41.851H205.5Z" transform="translate(-205.5 -275.3)" fill="#00adff"/>
          </g>
          <g id="XMLID_90_" transform="translate(9.392 84.079)">
            <path id="Path_10066" data-name="Path 10066" d="M274.653,567.812h-19.2A1.831,1.831,0,0,1,253.6,566.3l-.6-4.282a.449.449,0,0,1,.445-.511h23.209a.449.449,0,0,1,.445.511l-.6,4.282A1.829,1.829,0,0,1,274.653,567.812Zm-20.686-5.405.527,3.772a.932.932,0,0,0,.963.737h19.2a.932.932,0,0,0,.963-.735l.527-3.772H253.967Z" transform="translate(-253.001 -561.51)" fill="#fff"/>
          </g>
          <g id="XMLID_75_" transform="translate(1.83 40.775)">
            <path id="Path_10067" data-name="Path 10067" d="M234.345,316.5H209.863a2.133,2.133,0,0,1-2.123-1.845L202.5,272.8a.449.449,0,0,1,.446-.5h38.3a.449.449,0,0,1,.446.5l-5.241,41.851h0A2.1,2.1,0,0,1,234.345,316.5Zm-30.89-43.3,5.178,41.346a1.231,1.231,0,0,0,1.231,1.059h24.481a1.2,1.2,0,0,0,1.216-1.059h0l5.178-41.346Z" transform="translate(-202.496 -272.3)" fill="#fff"/>
          </g>
          <g id="XMLID_65_" transform="translate(0.449 34.755)">
            <path id="Path_10068" data-name="Path 10068" d="M234.229,238.567H194.28c-1.3.015-1.123-.689-.674-2.021a3.739,3.739,0,0,0,0-2.426c-.449-1.348-.629-2.036.674-2.021h39.949c1.3-.015,1.123.689.674,2.021a3.739,3.739,0,0,0,0,2.426C235.352,237.878,235.531,238.582,234.229,238.567Z" transform="translate(-193.272 -232.098)" fill="#fff"/>
          </g>
          <g id="Group_13887" data-name="Group 13887" transform="translate(0.447 34.98)">
            <g id="Group_13884" data-name="Group 13884" transform="translate(41.433)">
              <path id="Path_10069" data-name="Path 10069" d="M470.17,235.382c.285-.868.464-1.467.21-1.782-.06.195-.135.419-.21.659a3.988,3.988,0,0,0-.165,1.782A5.3,5.3,0,0,1,470.17,235.382Z" transform="translate(-469.971 -233.6)" fill="#7c7c7c"/>
            </g>
            <g id="Group_13885" data-name="Group 13885">
              <path id="Path_10070" data-name="Path 10070" d="M193.762,236.041a3.619,3.619,0,0,0-.165-1.782c-.075-.24-.15-.449-.21-.659-.255.314-.09.913.21,1.782A3.536,3.536,0,0,1,193.762,236.041Z" transform="translate(-193.262 -233.6)" fill="#7c7c7c"/>
            </g>
            <g id="Group_13886" data-name="Group 13886" transform="translate(0 4.866)">
              <path id="Path_10071" data-name="Path 10071" d="M235.1,266.1a1.148,1.148,0,0,1-.883.255H194.273c-.464,0-.734-.075-.883-.255-.255.913-.195,1.378.883,1.378h39.949C235.3,267.493,235.359,267.013,235.1,266.1Z" transform="translate(-193.264 -266.1)" fill="#bababa"/>
            </g>
          </g>
          <g id="XMLID_58_" transform="translate(0.452 34.74)">
            <g id="XMLID_64_" transform="translate(41.431 4.238)">
              <path id="Path_10072" data-name="Path 10072" d="M470.19,260.525a1.244,1.244,0,0,1-.06-.225,3.777,3.777,0,0,0,.045,2.156C470.729,262.232,470.535,261.573,470.19,260.525Z" transform="translate(-469.995 -260.3)" fill="#646464"/>
            </g>
            <g id="XMLID_61_">
              <path id="Path_10073" data-name="Path 10073" d="M193.835,235.5c.15-.06.734-1.512,1.632-1.512h37.957c1.078,0,1.273,2.186,1.437,2.246,0-.015.06-2.2.06-2.216.449-1.348.629-2.036-.674-2.021h-39.9c-1.348-.03-1.168.674-.719,2.021C193.64,234.046,193.82,235.484,193.835,235.5Z" transform="translate(-193.295 -231.994)" fill="#bababa"/>
            </g>
            <g id="XMLID_60_" transform="translate(0.001 4.238)">
              <path id="Path_10074" data-name="Path 10074" d="M193.662,262.456a3.777,3.777,0,0,0,.045-2.156c-.015.075-.045.15-.06.225C193.288,261.573,193.093,262.232,193.662,262.456Z" transform="translate(-193.304 -260.3)" fill="#646464"/>
            </g>
          </g>
          <g id="XMLID_57_" transform="translate(0 34.306)">
            <path id="Path_10075" data-name="Path 10075" d="M191.683,236.465a1.443,1.443,0,0,1-1.214-.461c-.383-.527-.117-1.316.165-2.153a3.31,3.31,0,0,0,0-2.135c-.293-.882-.547-1.638-.166-2.159a1.489,1.489,0,0,1,1.27-.458h39.943a1.483,1.483,0,0,1,1.264.461c.383.527.117,1.316-.165,2.153a3.31,3.31,0,0,0,0,2.135c.283.839.55,1.629.166,2.156a1.487,1.487,0,0,1-1.267.461h-40Zm40-.9h.039c.353,0,.479-.066.5-.091.111-.153-.159-.952-.289-1.337a4.209,4.209,0,0,1,0-2.713c.129-.383.4-1.184.289-1.336-.019-.027-.154-.1-.532-.091H191.733c-.457-.006-.538.088-.539.09-.108.147.162.954.29,1.342a4.2,4.2,0,0,1,0,2.712c-.129.383-.4,1.184-.289,1.336.019.027.153.094.532.091h39.956Z" transform="translate(-190.277 -229.098)" fill="#fff"/>
          </g>
          <g id="XMLID_56_" transform="translate(2.624 29.874)">
            <path id="Path_10076" data-name="Path 10076" d="M245.428,204.366H207.8l.374-1.318a5,5,0,0,1,4.881-3.549h27.117a5.016,5.016,0,0,1,4.881,3.549Z" transform="translate(-207.8 -199.5)" fill="#d6d6d4"/>
          </g>
          <g id="XMLID_55_" transform="translate(2.624 29.874)">
            <path id="Path_10077" data-name="Path 10077" d="M245.428,204.366H207.8l.374-1.318a5,5,0,0,1,4.881-3.549h27.117a5.016,5.016,0,0,1,4.881,3.549Z" transform="translate(-207.8 -199.5)" fill="#d6d6d4"/>
          </g>
          <g id="XMLID_54_" transform="translate(2.609 29.874)">
            <path id="Path_10078" data-name="Path 10078" d="M215.606,201.057l25.679-.015c1.857,0,2.995,1.333,3.519,1.5-.913-1.363-2.935-3.04-4.7-3.04H212.956a5.016,5.016,0,0,0-4.881,3.549l-.374,1.318h3.264A5.472,5.472,0,0,1,215.606,201.057Z" transform="translate(-207.7 -199.5)" fill="#fff"/>
          </g>
          <g id="XMLID_53_" transform="translate(2.175 29.425)">
            <path id="Path_10079" data-name="Path 10079" d="M242.882,202.265H205.254a.449.449,0,0,1-.431-.572l.374-1.318a5.458,5.458,0,0,1,5.314-3.875h27.115a5.484,5.484,0,0,1,5.313,3.875l.374,1.318a.449.449,0,0,1-.431.572Zm-37.034-.9h36.439l-.213-.746a4.583,4.583,0,0,0-4.449-3.222H210.509a4.557,4.557,0,0,0-4.449,3.219Z" transform="translate(-204.805 -196.5)" fill="#fff"/>
          </g>
          <g id="XMLID_52_" transform="translate(22.568 26.894)">
            <path id="Path_10080" data-name="Path 10080" d="M351.272,182.58H341v-.958a2.023,2.023,0,0,1,2.021-2.021h6.244a2.022,2.022,0,0,1,2.021,2.021v.958Z" transform="translate(-341 -179.6)" fill="#d6d6d4"/>
          </g>
          <g id="XMLID_51_" transform="translate(22.568 26.894)">
            <path id="Path_10081" data-name="Path 10081" d="M351.272,182.58H341v-.958a2.023,2.023,0,0,1,2.021-2.021h6.244a2.022,2.022,0,0,1,2.021,2.021v.958Z" transform="translate(-341 -179.6)" fill="#d6d6d4"/>
          </g>
          <g id="XMLID_50_" transform="translate(22.568 26.909)">
            <path id="Path_10082" data-name="Path 10082" d="M341.015,182.635a1.911,1.911,0,0,1,1.917-1.917h6.439a1.923,1.923,0,0,1,1.9,1.677v-.779a1.911,1.911,0,0,0-1.917-1.917h-6.439A1.911,1.911,0,0,0,341,181.617v1.048h.015v-.03Z" transform="translate(-341 -179.7)" fill="#fff"/>
          </g>
          <g id="XMLID_49_" transform="translate(14.365 50.897)" opacity="0.526">
            <path id="Path_10083" data-name="Path 10083" d="M292.065,354.035a5.911,5.911,0,0,1-5.375-4.133,8.352,8.352,0,0,1,1-7.517,5.216,5.216,0,0,1,4.148-2.486,4,4,0,0,1,1.378.255l.015.015.015.015a1.031,1.031,0,0,1,.554.644c.09.434-.195.839-.569,1.348a4.667,4.667,0,0,0-.764,5.061c1.168,3.025,1.168,5.9.449,6.588A1.337,1.337,0,0,1,292.065,354.035Z" transform="translate(-286.212 -339.9)" fill="#008ed1"/>
          </g>
          <g id="XMLID_48_" transform="translate(22.119 26.445)">
            <path id="Path_10084" data-name="Path 10084" d="M348.736,180.478H338.449a.449.449,0,0,1-.449-.449v-.958a2.473,2.473,0,0,1,2.471-2.471h6.244a2.473,2.473,0,0,1,2.471,2.471v.958A.449.449,0,0,1,348.736,180.478Zm-9.838-.9h9.388v-.509a1.574,1.574,0,0,0-1.572-1.572h-6.244a1.574,1.574,0,0,0-1.572,1.572Z" transform="translate(-338 -176.6)" fill="#fff"/>
          </g>
          <g id="XMLID_47_" transform="translate(20.966 51.63)" opacity="0.526">
            <path id="Path_10085" data-name="Path 10085" d="M333.669,358.156a2.067,2.067,0,0,1-1.5-.614,1.665,1.665,0,0,1-.449-1.243,8.815,8.815,0,0,0-.719-3.444,8.919,8.919,0,0,1-.7-2.95c-.015-3.653,2.441-4.806,2.74-4.926a1.244,1.244,0,0,1,.659-.18c.973,0,2.171.958,3.04,2.441a8.633,8.633,0,0,1,.045,8.61,3.834,3.834,0,0,1-3.114,2.306Z" transform="translate(-330.3 -344.8)" fill="#008ed1"/>
          </g>
          <g id="XMLID_46_" transform="translate(14.796 50.736)">
            <path id="Path_10086" data-name="Path 10086" d="M295.714,339.064c1.767,1-2.71,2.231-.913,6.9,1.228,3.189,1.048,5.765.524,6.259s-4.627-.09-5.765-3.773C287.7,343.391,291.746,337.582,295.714,339.064Z" transform="translate(-289.095 -338.829)" fill="#f6f9e4"/>
          </g>
          <g id="XMLID_45_" transform="translate(21.415 51.486)">
            <path id="Path_10087" data-name="Path 10087" d="M335.875,343.978s-2.59,1.018-2.575,4.672c0,2.036,1.572,4.088,1.422,6.409-.1,1.617,2.665,2.7,4.507-.614C342.448,348.6,337.657,342.84,335.875,343.978Z" transform="translate(-333.3 -343.833)" fill="#f6f9e4"/>
          </g>
          <g id="XMLID_18_" transform="translate(13.34 69.065)">
            <g id="XMLID_41_" transform="translate(5.872 2.727)">
              <path id="Path_10088" data-name="Path 10088" d="M319.121,479.817a1.87,1.87,0,0,0-.1,2.516.926.926,0,0,0,.6.21c.569-.015,1-.644,1.138-1.153.21-.809-.225-1.827-.824-1.932A1.032,1.032,0,0,0,319.121,479.817Zm.913,1.482c-.015.045-.1.314-.314.344a.342.342,0,0,1-.255-.09c-.18-.165-.165-.539.015-.943.12-.18.21-.225.27-.21C319.96,480.4,320.184,480.91,320.034,481.3Z" transform="translate(-318.579 -479.45)" fill="#e4f7f9"/>
            </g>
            <g id="XMLID_40_" transform="translate(8.096)">
              <path id="Path_10089" data-name="Path 10089" d="M333.578,468.808c-.314-.21-.045-.689.135-4.762a3.329,3.329,0,0,1,.868-2.546,1.25,1.25,0,0,1,.853-.254.709.709,0,0,1,.434.21.823.823,0,0,1,.18.749.773.773,0,0,0-.464-.09.944.944,0,0,0-.464.285c-.569.614-.509,3.189-.509,3.189.06,2.141.165,2.89-.255,3.189A.7.7,0,0,1,333.578,468.808Z" transform="translate(-333.433 -461.236)" fill="#e4f7f9"/>
            </g>
            <g id="XMLID_29_" transform="translate(9.822 0.986)">
              <path id="Path_10090" data-name="Path 10090" d="M345.088,474.364c-.269-.18-.045-.6.12-4.118a2.932,2.932,0,0,1,.749-2.2,1,1,0,0,1,.734-.21.774.774,0,0,1,.389.18.73.73,0,0,1,.15.659.61.61,0,0,0-.4-.075.756.756,0,0,0-.4.24c-.494.539-.434,2.755-.434,2.755.045,1.857.135,2.5-.225,2.755A.611.611,0,0,1,345.088,474.364Z" transform="translate(-344.963 -467.825)" fill="#e4f7f9"/>
            </g>
            <g id="XMLID_28_" transform="translate(11.147 3.037)">
              <path id="Path_10091" data-name="Path 10091" d="M355.128,484.034a.6.6,0,0,1-.449-.06c-.314-.225-.21-1.018.18-1.482.06-.06.4-.449.719-.344.09.03.21.12.21.225.015.255-.509.539-.973.569a1.44,1.44,0,0,1-.584-.09c-.135.195-.12.314-.1.359.09.284.734.27.824.255.06,0,1.183-.075,1.393-.839a.953.953,0,0,0-.24-.928,1.076,1.076,0,0,0-1.063-.06c-1.063.419-1.542,2.246-1,2.785a1.132,1.132,0,0,0,1.408-.075c.24-.24.3-.614.225-.659A1.249,1.249,0,0,1,355.128,484.034Z" transform="translate(-353.812 -481.522)" fill="#e4f7f9"/>
            </g>
            <g id="XMLID_23_" transform="translate(13.512 3.475)">
              <path id="Path_10092" data-name="Path 10092" d="M370.82,486.714a.5.5,0,0,1-.389-.045c-.284-.21-.165-.913.165-1.318.045-.06.3-.374.509-.3a.275.275,0,0,1,.18.255c-.015.24-.419.419-.719.449a1.02,1.02,0,0,1-.524-.075c-.12.165-.1.284-.09.314.075.225.509.255.734.225a1.262,1.262,0,0,0,1.123-.794.883.883,0,0,0-.1-.764,1.035,1.035,0,0,0-1.093-.12c-.883.359-1.288,1.9-.779,2.426a1.035,1.035,0,0,0,1.273.045c.225-.195.27-.539.21-.584S371.12,486.639,370.82,486.714Z" transform="translate(-369.609 -484.445)" fill="#e4f7f9"/>
            </g>
            <g id="XMLID_22_" transform="translate(6.735 1.26)">
              <path id="Path_10093" data-name="Path 10093" d="M330.522,470.049a.96.96,0,0,1-.255.614c-1.033.988-4.6-1.782-5.6-.794-.225.21-.4.689-.284.824.06.06.165.03.434,0,.24-.03.494-.015.734-.045a10.7,10.7,0,0,1,2.456.509c.24.045,2.126.434,2.575-.135.06-.075.344-.449.225-.689h0Z" transform="translate(-324.344 -469.653)" fill="#e4f7f9"/>
            </g>
            <g id="XMLID_20_" transform="translate(0 0.67)">
              <path id="Path_10094" data-name="Path 10094" d="M281.8,467.073c.644.314.853.524,1.273.479a1.05,1.05,0,0,0,.883-.629.608.608,0,0,0-.06-.554c-.21-.225-.734-.075-1.033.075a.052.052,0,0,1-.03.015c-1.3.7-1.707,3.519-.659,4.4a1.3,1.3,0,0,0,1.108.3,1,1,0,0,0,.719-.629.872.872,0,0,0-.135-.719c-.195-.225-.479-.24-.464-.314s.314-.195.6-.12a1.484,1.484,0,0,1,.809,1.662,1.744,1.744,0,0,1-.734,1.048,2.139,2.139,0,0,1-1.842.3,2.558,2.558,0,0,1-1.5-1.542,4.172,4.172,0,0,1,2.366-5c.12-.045,1.048-.329,1.437.1a1.321,1.321,0,0,1-.225,1.557,1.7,1.7,0,0,1-1.183.524,2.262,2.262,0,0,1-.824-.135c-.764-.21-.809-.449-1.228-.524-.809-.12-1.318.659-1.587.464-.24-.18-.135-1,.314-1.258S280.958,466.668,281.8,467.073Z" transform="translate(-279.365 -465.712)" fill="#e4f7f9"/>
            </g>
          </g>
          <g id="XMLID_17_" transform="translate(28.243 7.683)">
            <path id="Path_10095" data-name="Path 10095" d="M380.518,68.859a.449.449,0,0,1-.365-.71,5.076,5.076,0,0,0,1.116-3.3,4.372,4.372,0,0,0-1.02-2.291,6.128,6.128,0,0,1-1.3-2.926,7.138,7.138,0,0,1,.864-4.146,8.105,8.105,0,0,1,2.006-2.435,9.478,9.478,0,0,0,1.478-1.571.45.45,0,0,1,.731.524,10.325,10.325,0,0,1-1.605,1.714,7.263,7.263,0,0,0-1.806,2.17,6.193,6.193,0,0,0-.777,3.628,5.244,5.244,0,0,0,1.143,2.523,5.235,5.235,0,0,1,1.181,2.739,5.936,5.936,0,0,1-1.28,3.892A.451.451,0,0,1,380.518,68.859Z" transform="translate(-378.901 -51.295)" fill="#fff"/>
          </g>
          <g id="XMLID_5_" transform="translate(31.572)">
            <path id="Path_10096" data-name="Path 10096" d="M402.4,17.671a.45.45,0,0,1-.383-.214,5.357,5.357,0,0,1-.873-3.218c.118-1.726,1.151-2.8,2.247-3.939a11.658,11.658,0,0,0,2-2.517c1.023-1.888,1.186-4.326.482-7.243a.449.449,0,0,1,.873-.211c.756,3.138.566,5.79-.566,7.88a12.57,12.57,0,0,1-2.141,2.712c-1.021,1.06-1.9,1.976-2,3.379a4.5,4.5,0,0,0,.743,2.685.45.45,0,0,1-.148.618A.436.436,0,0,1,402.4,17.671Z" transform="translate(-401.128 0.015)" fill="#fff"/>
          </g>
          <g id="XMLID_1_" transform="translate(25.922 8.987)">
            <path id="Path_10097" data-name="Path 10097" d="M363.849,64.9a.449.449,0,0,1-.449-.449c0-2.044,1.827-4.2,1.9-4.29a.449.449,0,0,1,.683.584h0c-.016.019-1.689,2-1.689,3.706A.449.449,0,0,1,363.849,64.9Z" transform="translate(-363.4 -60.002)" fill="#fff"/>
          </g>
        </g>
      </g>
    </g>
  </g>
</svg>
