<svg xmlns="http://www.w3.org/2000/svg" width="191.233" height="176.373" viewBox="0 0 191.233 176.373"><defs><style>.a,.o{fill:#242424;}.b{fill:#ac2022;}.c,.m{fill:#fff;}.d,.f,.g,.h,.j,.k,.l,.n,.q,.v,.w{fill:none;}.d,.l,.m,.n,.o,.q,.r,.w{stroke:#242424;}.d,.f,.g,.k{stroke-miterlimit:10;}.d,.f,.n,.o{stroke-width:2px;}.e{fill:#bababa;}.f,.k{stroke:#fff;}.f,.g,.h,.j,.k,.l,.n,.q,.r,.v,.w{stroke-linecap:round;}.g{stroke:#44080a;stroke-width:5px;}.h,.j,.v{stroke:#59221d;}.h,.j,.l,.m,.n,.o,.q,.r,.v,.w{stroke-linejoin:round;}.h{stroke-width:3px;}.i{fill:#6d1214;}.j{stroke-width:4px;}.l{stroke-width:0.6px;}.p{fill:#e8e8e8;}.q,.r{stroke-width:0.5px;}.r{fill:rgba(0,0,0,0);}.s{fill:#44080a;}.t{fill:#525252;}.u{fill:#363636;}</style></defs><g transform="translate(-2857.27 -497.36)"><g transform="translate(2858.27 497.36)"><g transform="translate(0 0)"><g transform="translate(18.576 164.21)"><circle class="a" cx="0.661" cy="0.661" r="0.661" transform="translate(35.361)"/><circle class="a" cx="0.661" cy="0.661" r="0.661" transform="translate(39.515)"/><circle class="a" cx="0.661" cy="0.661" r="0.661" transform="translate(43.668)"/><circle class="a" cx="0.661" cy="0.661" r="0.661" transform="translate(47.822)"/><circle class="a" cx="0.661" cy="0.661" r="0.661" transform="translate(51.976)"/><circle class="a" cx="0.661" cy="0.661" r="0.661" transform="translate(56.13)"/><circle class="a" cx="0.661" cy="0.661" r="0.661" transform="translate(60.283)"/><circle class="a" cx="0.661" cy="0.661" r="0.661" transform="translate(10.459)"/><circle class="a" cx="0.661" cy="0.661" r="0.661" transform="translate(14.621)"/><circle class="a" cx="0.661" cy="0.661" r="0.661" transform="translate(18.782)"/><circle class="a" cx="0.661" cy="0.661" r="0.661" transform="translate(22.944)"/><circle class="a" cx="0.661" cy="0.661" r="0.661" transform="translate(27.106)"/><circle class="a" cx="0.661" cy="0.661" r="0.661" transform="translate(31.267)"/><circle class="a" cx="0.661" cy="0.661" r="0.661" transform="translate(33.284 2.168)"/><circle class="a" cx="0.661" cy="0.661" r="0.661" transform="translate(37.438 2.168)"/><circle class="a" cx="0.661" cy="0.661" r="0.661" transform="translate(41.592 2.168)"/><circle class="a" cx="0.661" cy="0.661" r="0.661" transform="translate(45.745 2.168)"/><circle class="a" cx="0.661" cy="0.661" r="0.661" transform="translate(49.899 2.168)"/><circle class="a" cx="0.661" cy="0.661" r="0.661" transform="translate(54.053 2.168)"/><circle class="a" cx="0.661" cy="0.661" r="0.661" transform="translate(58.206 2.168)"/><circle class="a" cx="0.661" cy="0.661" r="0.661" transform="translate(8.378 2.168)"/><circle class="a" cx="0.661" cy="0.661" r="0.661" transform="translate(12.54 2.168)"/><circle class="a" cx="0.661" cy="0.661" r="0.661" transform="translate(16.701 2.168)"/><circle class="a" cx="0.661" cy="0.661" r="0.661" transform="translate(20.863 2.168)"/><circle class="a" cx="0.661" cy="0.661" r="0.661" transform="translate(25.025 2.168)"/><circle class="a" cx="0.661" cy="0.661" r="0.661" transform="translate(29.187 2.168)"/><circle class="a" cx="0.661" cy="0.661" r="0.661" transform="translate(35.361 4.337)"/><circle class="a" cx="0.661" cy="0.661" r="0.661" transform="translate(39.515 4.337)"/><circle class="a" cx="0.661" cy="0.661" r="0.661" transform="translate(43.668 4.337)"/><circle class="a" cx="0.661" cy="0.661" r="0.661" transform="translate(47.822 4.337)"/><circle class="a" cx="0.661" cy="0.661" r="0.661" transform="translate(51.976 4.337)"/><circle class="a" cx="0.661" cy="0.661" r="0.661" transform="translate(56.13 4.337)"/><circle class="a" cx="0.661" cy="0.661" r="0.661" transform="translate(60.283 4.337)"/><circle class="a" cx="0.661" cy="0.661" r="0.661" transform="translate(6.296 4.337)"/><circle class="a" cx="0.661" cy="0.661" r="0.661" transform="translate(10.459 4.337)"/><circle class="a" cx="0.661" cy="0.661" r="0.661" transform="translate(14.621 4.337)"/><circle class="a" cx="0.661" cy="0.661" r="0.661" transform="translate(18.782 4.337)"/><circle class="a" cx="0.661" cy="0.661" r="0.661" transform="translate(22.944 4.337)"/><circle class="a" cx="0.661" cy="0.661" r="0.661" transform="translate(27.106 4.337)"/><circle class="a" cx="0.661" cy="0.661" r="0.661" transform="translate(31.267 4.337)"/><circle class="a" cx="0.661" cy="0.661" r="0.661" transform="translate(33.284 6.505)"/><circle class="a" cx="0.661" cy="0.661" r="0.661" transform="translate(37.438 6.505)"/><circle class="a" cx="0.661" cy="0.661" r="0.661" transform="translate(41.592 6.505)"/><circle class="a" cx="0.661" cy="0.661" r="0.661" transform="translate(45.745 6.505)"/><circle class="a" cx="0.661" cy="0.661" r="0.661" transform="translate(49.899 6.505)"/><circle class="a" cx="0.661" cy="0.661" r="0.661" transform="translate(54.053 6.505)"/><circle class="a" cx="0.661" cy="0.661" r="0.661" transform="translate(58.206 6.505)"/><circle class="a" cx="0.661" cy="0.661" r="0.661" transform="translate(8.378 6.505)"/><circle class="a" cx="0.661" cy="0.661" r="0.661" transform="translate(4.215 6.505)"/><circle class="a" cx="0.661" cy="0.661" r="0.661" transform="translate(12.54 6.505)"/><circle class="a" cx="0.661" cy="0.661" r="0.661" transform="translate(16.701 6.505)"/><circle class="a" cx="0.661" cy="0.661" r="0.661" transform="translate(20.863 6.505)"/><circle class="a" cx="0.661" cy="0.661" r="0.661" transform="translate(25.025 6.505)"/><circle class="a" cx="0.661" cy="0.661" r="0.661" transform="translate(29.187 6.505)"/><circle class="a" cx="0.661" cy="0.661" r="0.661" transform="translate(35.361 8.673)"/><circle class="a" cx="0.661" cy="0.661" r="0.661" transform="translate(39.515 8.673)"/><circle class="a" cx="0.661" cy="0.661" r="0.661" transform="translate(43.668 8.673)"/><circle class="a" cx="0.661" cy="0.661" r="0.661" transform="translate(47.822 8.673)"/><circle class="a" cx="0.661" cy="0.661" r="0.661" transform="translate(51.976 8.673)"/><circle class="a" cx="0.661" cy="0.661" r="0.661" transform="translate(56.13 8.673)"/><circle class="a" cx="0.661" cy="0.661" r="0.661" transform="translate(60.283 8.673)"/><circle class="a" cx="0.661" cy="0.661" r="0.661" transform="translate(10.459 8.673)"/><circle class="a" cx="0.661" cy="0.661" r="0.661" transform="translate(6.296 8.673)"/><circle class="a" cx="0.661" cy="0.661" r="0.661" transform="translate(2.136 8.673)"/><circle class="a" cx="0.661" cy="0.661" r="0.661" transform="translate(14.621 8.673)"/><circle class="a" cx="0.661" cy="0.661" r="0.661" transform="translate(18.782 8.673)"/><circle class="a" cx="0.661" cy="0.661" r="0.661" transform="translate(22.944 8.673)"/><circle class="a" cx="0.661" cy="0.661" r="0.661" transform="translate(27.106 8.673)"/><circle class="a" cx="0.661" cy="0.661" r="0.661" transform="translate(31.267 8.673)"/><circle class="a" cx="0.661" cy="0.661" r="0.661" transform="translate(33.284 10.842)"/><circle class="a" cx="0.661" cy="0.661" r="0.661" transform="translate(37.438 10.842)"/><circle class="a" cx="0.661" cy="0.661" r="0.661" transform="translate(41.592 10.842)"/><circle class="a" cx="0.661" cy="0.661" r="0.661" transform="translate(45.745 10.842)"/><circle class="a" cx="0.661" cy="0.661" r="0.661" transform="translate(49.899 10.842)"/><circle class="a" cx="0.661" cy="0.661" r="0.661" transform="translate(54.053 10.842)"/><circle class="a" cx="0.661" cy="0.661" r="0.661" transform="translate(58.206 10.842)"/><circle class="a" cx="0.661" cy="0.661" r="0.661" transform="translate(12.54 10.842)"/><circle class="a" cx="0.661" cy="0.661" r="0.661" transform="translate(8.378 10.842)"/><circle class="a" cx="0.661" cy="0.661" r="0.661" transform="translate(4.215 10.842)"/><circle class="a" cx="0.661" cy="0.661" r="0.661" transform="translate(0 10.842)"/><circle class="a" cx="0.661" cy="0.661" r="0.661" transform="translate(16.701 10.842)"/><circle class="a" cx="0.661" cy="0.661" r="0.661" transform="translate(20.863 10.842)"/><circle class="a" cx="0.661" cy="0.661" r="0.661" transform="translate(25.025 10.842)"/><circle class="a" cx="0.661" cy="0.661" r="0.661" transform="translate(29.187 10.842)"/><circle class="a" cx="0.661" cy="0.661" r="0.661" transform="translate(97.663)"/><circle class="a" cx="0.661" cy="0.661" r="0.661" transform="translate(101.817)"/><circle class="a" cx="0.661" cy="0.661" r="0.661" transform="translate(105.97)"/><circle class="a" cx="0.661" cy="0.661" r="0.661" transform="translate(110.124)"/><circle class="a" cx="0.661" cy="0.661" r="0.661" transform="translate(114.278)"/><circle class="a" cx="0.661" cy="0.661" r="0.661" transform="translate(118.431)"/><circle class="a" cx="0.661" cy="0.661" r="0.661" transform="translate(122.585)"/><circle class="a" cx="0.661" cy="0.661" r="0.661" transform="translate(68.586)"/><circle class="a" cx="0.661" cy="0.661" r="0.661" transform="translate(64.432)"/><circle class="a" cx="0.661" cy="0.661" r="0.661" transform="translate(72.74)"/><circle class="a" cx="0.661" cy="0.661" r="0.661" transform="translate(76.894)"/><circle class="a" cx="0.661" cy="0.661" r="0.661" transform="translate(81.047)"/><circle class="a" cx="0.661" cy="0.661" r="0.661" transform="translate(85.201)"/><circle class="a" cx="0.661" cy="0.661" r="0.661" transform="translate(89.356)"/><circle class="a" cx="0.661" cy="0.661" r="0.661" transform="translate(93.508)"/><circle class="a" cx="0.661" cy="0.661" r="0.661" transform="translate(95.586 2.168)"/><circle class="a" cx="0.661" cy="0.661" r="0.661" transform="translate(99.74 2.168)"/><circle class="a" cx="0.661" cy="0.661" r="0.661" transform="translate(103.893 2.168)"/><circle class="a" cx="0.661" cy="0.661" r="0.661" transform="translate(108.047 2.168)"/><circle class="a" cx="0.661" cy="0.661" r="0.661" transform="translate(112.201 2.168)"/><circle class="a" cx="0.661" cy="0.661" r="0.661" transform="translate(116.355 2.168)"/><circle class="a" cx="0.661" cy="0.661" r="0.661" transform="translate(120.508 2.168)"/><circle class="a" cx="0.661" cy="0.661" r="0.661" transform="translate(66.509 2.168)"/><circle class="a" cx="0.661" cy="0.661" r="0.661" transform="translate(62.356 2.168)"/><circle class="a" cx="0.661" cy="0.661" r="0.661" transform="translate(70.663 2.168)"/><circle class="a" cx="0.661" cy="0.661" r="0.661" transform="translate(74.817 2.168)"/><circle class="a" cx="0.661" cy="0.661" r="0.661" transform="translate(78.97 2.168)"/><circle class="a" cx="0.661" cy="0.661" r="0.661" transform="translate(83.124 2.168)"/><circle class="a" cx="0.661" cy="0.661" r="0.661" transform="translate(87.279 2.168)"/><circle class="a" cx="0.661" cy="0.661" r="0.661" transform="translate(91.431 2.168)"/><circle class="a" cx="0.661" cy="0.661" r="0.661" transform="translate(97.663 4.337)"/><circle class="a" cx="0.661" cy="0.661" r="0.661" transform="translate(101.817 4.337)"/><circle class="a" cx="0.661" cy="0.661" r="0.661" transform="translate(105.97 4.337)"/><circle class="a" cx="0.661" cy="0.661" r="0.661" transform="translate(110.124 4.337)"/><circle class="a" cx="0.661" cy="0.661" r="0.661" transform="translate(114.278 4.337)"/><circle class="a" cx="0.661" cy="0.661" r="0.661" transform="translate(118.431 4.337)"/><circle class="a" cx="0.661" cy="0.661" r="0.661" transform="translate(122.585 4.337)"/><circle class="a" cx="0.661" cy="0.661" r="0.661" transform="translate(68.586 4.337)"/><circle class="a" cx="0.661" cy="0.661" r="0.661" transform="translate(64.432 4.337)"/><circle class="a" cx="0.661" cy="0.661" r="0.661" transform="translate(72.74 4.337)"/><circle class="a" cx="0.661" cy="0.661" r="0.661" transform="translate(76.894 4.337)"/><circle class="a" cx="0.661" cy="0.661" r="0.661" transform="translate(81.047 4.337)"/><circle class="a" cx="0.661" cy="0.661" r="0.661" transform="translate(85.201 4.337)"/><circle class="a" cx="0.661" cy="0.661" r="0.661" transform="translate(89.356 4.337)"/><circle class="a" cx="0.661" cy="0.661" r="0.661" transform="translate(93.508 4.337)"/><circle class="a" cx="0.661" cy="0.661" r="0.661" transform="translate(95.586 6.505)"/><circle class="a" cx="0.661" cy="0.661" r="0.661" transform="translate(99.74 6.505)"/><circle class="a" cx="0.661" cy="0.661" r="0.661" transform="translate(103.893 6.505)"/><circle class="a" cx="0.661" cy="0.661" r="0.661" transform="translate(108.047 6.505)"/><circle class="a" cx="0.661" cy="0.661" r="0.661" transform="translate(112.201 6.505)"/><circle class="a" cx="0.661" cy="0.661" r="0.661" transform="translate(116.355 6.505)"/><circle class="a" cx="0.661" cy="0.661" r="0.661" transform="translate(120.508 6.505)"/><circle class="a" cx="0.661" cy="0.661" r="0.661" transform="translate(66.509 6.505)"/><circle class="a" cx="0.661" cy="0.661" r="0.661" transform="translate(62.356 6.505)"/><circle class="a" cx="0.661" cy="0.661" r="0.661" transform="translate(70.663 6.505)"/><circle class="a" cx="0.661" cy="0.661" r="0.661" transform="translate(74.817 6.505)"/><circle class="a" cx="0.661" cy="0.661" r="0.661" transform="translate(78.97 6.505)"/><circle class="a" cx="0.661" cy="0.661" r="0.661" transform="translate(83.124 6.505)"/><circle class="a" cx="0.661" cy="0.661" r="0.661" transform="translate(87.279 6.505)"/><circle class="a" cx="0.661" cy="0.661" r="0.661" transform="translate(91.431 6.505)"/><circle class="a" cx="0.661" cy="0.661" r="0.661" transform="translate(97.663 8.673)"/><circle class="a" cx="0.661" cy="0.661" r="0.661" transform="translate(101.817 8.673)"/><circle class="a" cx="0.661" cy="0.661" r="0.661" transform="translate(105.97 8.673)"/><circle class="a" cx="0.661" cy="0.661" r="0.661" transform="translate(110.124 8.673)"/><circle class="a" cx="0.661" cy="0.661" r="0.661" transform="translate(114.278 8.673)"/><circle class="a" cx="0.661" cy="0.661" r="0.661" transform="translate(118.431 8.673)"/><circle class="a" cx="0.661" cy="0.661" r="0.661" transform="translate(122.585 8.673)"/><circle class="a" cx="0.661" cy="0.661" r="0.661" transform="translate(68.586 8.673)"/><circle class="a" cx="0.661" cy="0.661" r="0.661" transform="translate(64.432 8.673)"/><circle class="a" cx="0.661" cy="0.661" r="0.661" transform="translate(72.74 8.673)"/><circle class="a" cx="0.661" cy="0.661" r="0.661" transform="translate(76.894 8.673)"/><circle class="a" cx="0.661" cy="0.661" r="0.661" transform="translate(81.047 8.673)"/><circle class="a" cx="0.661" cy="0.661" r="0.661" transform="translate(85.201 8.673)"/><circle class="a" cx="0.661" cy="0.661" r="0.661" transform="translate(89.356 8.673)"/><circle class="a" cx="0.661" cy="0.661" r="0.661" transform="translate(93.508 8.673)"/><circle class="a" cx="0.661" cy="0.661" r="0.661" transform="translate(95.586 10.842)"/><circle class="a" cx="0.661" cy="0.661" r="0.661" transform="translate(99.74 10.842)"/><circle class="a" cx="0.661" cy="0.661" r="0.661" transform="translate(103.893 10.842)"/><circle class="a" cx="0.661" cy="0.661" r="0.661" transform="translate(108.047 10.842)"/><circle class="a" cx="0.661" cy="0.661" r="0.661" transform="translate(112.201 10.842)"/><circle class="a" cx="0.661" cy="0.661" r="0.661" transform="translate(116.355 10.842)"/><circle class="a" cx="0.661" cy="0.661" r="0.661" transform="translate(120.508 10.842)"/><circle class="a" cx="0.661" cy="0.661" r="0.661" transform="translate(66.509 10.842)"/><circle class="a" cx="0.661" cy="0.661" r="0.661" transform="translate(62.356 10.842)"/><circle class="a" cx="0.661" cy="0.661" r="0.661" transform="translate(70.663 10.842)"/><circle class="a" cx="0.661" cy="0.661" r="0.661" transform="translate(74.817 10.842)"/><circle class="a" cx="0.661" cy="0.661" r="0.661" transform="translate(78.97 10.842)"/><circle class="a" cx="0.661" cy="0.661" r="0.661" transform="translate(83.124 10.842)"/><circle class="a" cx="0.661" cy="0.661" r="0.661" transform="translate(87.279 10.842)"/><circle class="a" cx="0.661" cy="0.661" r="0.661" transform="translate(91.431 10.842)"/><circle class="a" cx="0.661" cy="0.661" r="0.661" transform="translate(126.681)"/><circle class="a" cx="0.661" cy="0.661" r="0.661" transform="translate(130.834)"/><circle class="a" cx="0.661" cy="0.661" r="0.661" transform="translate(134.988)"/><circle class="a" cx="0.661" cy="0.661" r="0.661" transform="translate(139.082)"/><circle class="a" cx="0.661" cy="0.661" r="0.661" transform="translate(143.243)"/><circle class="a" cx="0.661" cy="0.661" r="0.661" transform="translate(147.405)"/><circle class="a" cx="0.661" cy="0.661" r="0.661" transform="translate(151.567)"/><circle class="a" cx="0.661" cy="0.661" r="0.661" transform="translate(153.648 2.168)"/><circle class="a" cx="0.661" cy="0.661" r="0.661" transform="translate(124.604 2.168)"/><circle class="a" cx="0.661" cy="0.661" r="0.661" transform="translate(128.758 2.168)"/><circle class="a" cx="0.661" cy="0.661" r="0.661" transform="translate(132.911 2.168)"/><circle class="a" cx="0.661" cy="0.661" r="0.661" transform="translate(137.065 2.168)"/><circle class="a" cx="0.661" cy="0.661" r="0.661" transform="translate(141.163 2.168)"/><circle class="a" cx="0.661" cy="0.661" r="0.661" transform="translate(145.324 2.168)"/><circle class="a" cx="0.661" cy="0.661" r="0.661" transform="translate(149.486 2.168)"/><circle class="a" cx="0.661" cy="0.661" r="0.661" transform="translate(155.729 4.337)"/><circle class="a" cx="0.661" cy="0.661" r="0.661" transform="translate(126.681 4.337)"/><circle class="a" cx="0.661" cy="0.661" r="0.661" transform="translate(130.834 4.337)"/><circle class="a" cx="0.661" cy="0.661" r="0.661" transform="translate(134.988 4.337)"/><circle class="a" cx="0.661" cy="0.661" r="0.661" transform="translate(139.082 4.337)"/><circle class="a" cx="0.661" cy="0.661" r="0.661" transform="translate(143.243 4.337)"/><circle class="a" cx="0.661" cy="0.661" r="0.661" transform="translate(147.405 4.337)"/><circle class="a" cx="0.661" cy="0.661" r="0.661" transform="translate(151.567 4.337)"/><circle class="a" cx="0.661" cy="0.661" r="0.661" transform="translate(153.648 6.505)"/><circle class="a" cx="0.661" cy="0.661" r="0.661" transform="translate(157.809 6.505)"/><circle class="a" cx="0.661" cy="0.661" r="0.661" transform="translate(124.604 6.505)"/><circle class="a" cx="0.661" cy="0.661" r="0.661" transform="translate(128.758 6.505)"/><circle class="a" cx="0.661" cy="0.661" r="0.661" transform="translate(132.911 6.505)"/><circle class="a" cx="0.661" cy="0.661" r="0.661" transform="translate(137.065 6.505)"/><circle class="a" cx="0.661" cy="0.661" r="0.661" transform="translate(141.163 6.505)"/><circle class="a" cx="0.661" cy="0.661" r="0.661" transform="translate(145.324 6.505)"/><circle class="a" cx="0.661" cy="0.661" r="0.661" transform="translate(149.486 6.505)"/><circle class="a" cx="0.661" cy="0.661" r="0.661" transform="translate(155.729 8.673)"/><circle class="a" cx="0.661" cy="0.661" r="0.661" transform="translate(159.89 8.673)"/><circle class="a" cx="0.661" cy="0.661" r="0.661" transform="translate(126.681 8.673)"/><circle class="a" cx="0.661" cy="0.661" r="0.661" transform="translate(130.834 8.673)"/><circle class="a" cx="0.661" cy="0.661" r="0.661" transform="translate(134.988 8.673)"/><circle class="a" cx="0.661" cy="0.661" r="0.661" transform="translate(139.082 8.673)"/><circle class="a" cx="0.661" cy="0.661" r="0.661" transform="translate(143.243 8.673)"/><circle class="a" cx="0.661" cy="0.661" r="0.661" transform="translate(147.405 8.673)"/><circle class="a" cx="0.661" cy="0.661" r="0.661" transform="translate(151.567 8.673)"/><circle class="a" cx="0.661" cy="0.661" r="0.661" transform="translate(153.648 10.842)"/><circle class="a" cx="0.661" cy="0.661" r="0.661" transform="translate(157.809 10.842)"/><circle class="a" cx="0.661" cy="0.661" r="0.661" transform="translate(161.971 10.842)"/><circle class="a" cx="0.661" cy="0.661" r="0.661" transform="translate(124.604 10.842)"/><circle class="a" cx="0.661" cy="0.661" r="0.661" transform="translate(128.758 10.842)"/><circle class="a" cx="0.661" cy="0.661" r="0.661" transform="translate(132.911 10.842)"/><circle class="a" cx="0.661" cy="0.661" r="0.661" transform="translate(137.065 10.842)"/><circle class="a" cx="0.661" cy="0.661" r="0.661" transform="translate(141.163 10.842)"/><circle class="a" cx="0.661" cy="0.661" r="0.661" transform="translate(145.324 10.842)"/><circle class="a" cx="0.661" cy="0.661" r="0.661" transform="translate(149.486 10.842)"/><circle class="a" cx="0.661" cy="0.661" r="0.661" transform="translate(155.772)"/><circle class="a" cx="0.661" cy="0.661" r="0.661" transform="translate(159.932)"/><circle class="a" cx="0.661" cy="0.661" r="0.661" transform="translate(162.013 2.168)"/><circle class="a" cx="0.661" cy="0.661" r="0.661" transform="translate(157.851 2.168)"/><circle class="a" cx="0.661" cy="0.661" r="0.661" transform="translate(164.094 4.337)"/><circle class="a" cx="0.661" cy="0.661" r="0.661" transform="translate(159.932 4.337)"/><circle class="a" cx="0.661" cy="0.661" r="0.661" transform="translate(162.013 6.505)"/><circle class="a" cx="0.661" cy="0.661" r="0.661" transform="translate(166.176 6.505)"/><circle class="a" cx="0.661" cy="0.661" r="0.661" transform="translate(164.094 8.673)"/><circle class="a" cx="0.661" cy="0.661" r="0.661" transform="translate(168.257 8.673)"/><circle class="a" cx="0.661" cy="0.661" r="0.661" transform="translate(166.176 10.842)"/><circle class="a" cx="0.661" cy="0.661" r="0.661" transform="translate(170.336 10.842)"/></g><path class="b" d="M3145.321,534.722l71.685-37.362,71.768,37.362V660.564H3145.32Z" transform="translate(-3110.978 -497.36)"/><g transform="translate(57.261 24.983)"><path class="c" d="M3408.808,817.09l40.082,124.584H3334.41l47.675-124.584Z" transform="translate(-3334.41 -803.321)"/><line class="d" y2="124.584" transform="translate(60.939 13.769)"/><path class="e" d="M3754.473,728.1H3727.75l4.08-12.274h18.563Z" transform="translate(-3680.076 -714.334)"/><line class="f" x2="17.714" transform="translate(52.179 1)"/><line class="d" y2="15.215" transform="translate(68.9 13.77)"/><circle class="g" cx="1.021" cy="1.021" r="1.021" transform="translate(67.863 28.845)"/></g><g transform="translate(0 62.366)"><g transform="translate(56.02 40.009)"><path class="a" d="M3367.349,1372.865a6.546,6.546,0,0,1-5.761,3.434H3321.47v-5.126h7.23l10.06-22.883a6.76,6.76,0,0,1,6.181-4.04h25.551a6.759,6.759,0,0,1,6.087,9.7Z" transform="translate(-3321.47 -1344.25)"/><line class="h" x2="10.954" y2="28.781" transform="translate(37.053 32.048)"/><line class="h" x1="10.954" y2="28.781" transform="translate(1.748 32.048)"/></g><g transform="translate(64.413 14.45)"><path class="i" d="M3390.72,1152.839v-4.9a14.567,14.567,0,0,1,14.567-14.567h22.735A18.06,18.06,0,0,1,3445,1145.26l5.355,14.72a12.494,12.494,0,0,1-2.92,13.161,11.782,11.782,0,0,1-11.911,2.831l-6.987-3.183-2.45,3.6Z" transform="translate(-3390.72 -1133.37)"/><path class="a" d="M3486.6,1147.484H3447.57q.465-.291.951-.544h36.989c.336.154.668.319.993.495C3486.535,1147.45,3486.567,1147.467,3486.6,1147.484Z" transform="translate(-3440.68 -1145.295)"/><path class="a" d="M3466.272,1171.063H3420c.16-.184.325-.364.495-.543h45.19C3465.884,1170.7,3466.079,1170.876,3466.272,1171.063Z" transform="translate(-3416.451 -1166.017)"/><path class="a" d="M3454.624,1194.614H3404l.08-.154c.07-.131.14-.261.214-.39h49.936c.079.1.155.212.23.32A2.417,2.417,0,0,1,3454.624,1194.614Z" transform="translate(-3402.39 -1186.713)"/><path class="a" d="M3448.194,1218.174H3394.88c.048-.183.1-.364.159-.544h52.905Q3448.074,1217.9,3448.194,1218.174Z" transform="translate(-3394.376 -1207.417)"/><path class="a" d="M3445.87,1241.743H3391c.01-.182.027-.364.044-.543h54.63Z" transform="translate(-3390.966 -1228.131)"/><path class="a" d="M3446.662,1265.3H3390.72v-.544h55.745Z" transform="translate(-3390.72 -1248.835)"/><path class="a" d="M3447.7,1288.864H3390.72v-.544H3447.5Z" transform="translate(-3390.72 -1269.54)"/><path class="a" d="M3472.309,1312.424h-53.952l-.675-.45-.142-.095h54.573Z" transform="translate(-3414.289 -1290.244)"/><path class="a" d="M3504.441,1335.993h-50.7l-.817-.543h51.323Z" transform="translate(-3445.381 -1310.957)"/><path class="a" d="M3536.511,1359.554h-47.384l-.685-.456-.132-.089h48.047C3536.412,1359.191,3536.461,1359.372,3536.511,1359.554Z" transform="translate(-3476.482 -1331.662)"/><path class="a" d="M3567.981,1383.114h-43.466l-.816-.544h44.261C3567.975,1382.753,3567.975,1382.934,3567.981,1383.114Z" transform="translate(-3507.583 -1352.366)"/><path class="a" d="M3598.9,1406.14c-.032.182-.068.364-.109.543h-38.881l-.694-.462-.121-.081Z" transform="translate(-3538.683 -1373.079)"/><path class="a" d="M3629.155,1429.7q-.122.275-.255.544h-33.573l-.817-.544Z" transform="translate(-3569.81 -1393.784)"/><path class="a" d="M3658.522,1453.26q-.178.22-.364.433l-.1.112h-27.349l-.569-.379-.242-.165Z" transform="translate(-3600.911 -1414.489)"/><path class="a" d="M3580.824,1133.39v35.132l-.544-.364V1133.39Z" transform="translate(-3557.305 -1133.388)"/><path class="a" d="M3604.394,1133.39v37.032l-.544-.361V1133.39Z" transform="translate(-3578.018 -1133.388)"/><path class="a" d="M3627.954,1133.39v38.934l-.247-.165-.3-.2V1133.39Z" transform="translate(-3598.722 -1133.388)"/><path class="a" d="M3651.514,1133.39v40.837l-.544-.364V1133.39Z" transform="translate(-3619.427 -1133.388)"/><path class="a" d="M3675.083,1133.39v42.737l-.543-.361V1133.39Z" transform="translate(-3640.14 -1133.388)"/><path class="a" d="M3698.645,1133.415v39.436l-.544.8V1133.41h.513Z" transform="translate(-3660.845 -1133.405)"/><path class="a" d="M3722.2,1135.3v40.967l-.544-.173V1135.2C3721.843,1135.228,3722.023,1135.259,3722.2,1135.3Z" transform="translate(-3681.549 -1134.978)"/><path class="a" d="M3745.773,1141.1v41.088l-.543-.172v-41.1C3745.412,1140.968,3745.594,1141.032,3745.773,1141.1Z" transform="translate(-3702.262 -1139.996)"/><path class="a" d="M3769.334,1151.305v40.546c-.183-.031-.364-.069-.544-.109V1151c.033.016.064.033.095.05C3769.036,1151.135,3769.185,1151.218,3769.334,1151.305Z" transform="translate(-3722.967 -1148.863)"/><path class="a" d="M3792.894,1167.119v38.65c-.18.012-.364.019-.544.023V1166.66Q3792.626,1166.884,3792.894,1167.119Z" transform="translate(-3743.672 -1162.625)"/><path class="a" d="M3816.454,1191.393v34.923c-.086.029-.172.056-.259.081l-.21.059-.075.021V1190.66c.108.136.212.274.314.413C3816.3,1191.177,3816.379,1191.285,3816.454,1191.393Z" transform="translate(-3764.375 -1183.716)"/><path class="a" d="M3840.09,1235.554v27.53c-.086.058-.173.121-.261.17s-.164.1-.242.149l-.036.023V1234.06l.314.864.2.544Z" transform="translate(-3785.151 -1221.856)"/><path class="a" d="M3863.593,1300.324v16.995c-.058.076-.121.154-.179.228q-.178.22-.364.433v-19.15Z" transform="translate(-3805.803 -1278.776)"/><path class="a" d="M3414.764,1176.49v16.5l-.142-.094-.4-.268V1177.18C3414.395,1176.944,3414.575,1176.714,3414.764,1176.49Z" transform="translate(-3411.372 -1171.264)"/><path class="a" d="M3438.324,1154.92v21.021l-.544-.364v-20.26C3437.958,1155.179,3438.14,1155.051,3438.324,1154.92Z" transform="translate(-3432.076 -1152.308)"/><path class="a" d="M3461.894,1142.13V1166.6l-.544-.364v-23.877C3461.529,1142.283,3461.71,1142.2,3461.894,1142.13Z" transform="translate(-3452.79 -1141.068)"/><path class="a" d="M3485.454,1135.31v27.2l-.132-.089-.412-.275V1135.42C3485.089,1135.379,3485.272,1135.343,3485.454,1135.31Z" transform="translate(-3473.494 -1135.075)"/><path class="a" d="M3509.054,1133.39v29.331l-.544-.364V1133.39h.544Z" transform="translate(-3494.233 -1133.388)"/><path class="a" d="M3532.584,1133.39v31.236l-.544-.361V1133.39Z" transform="translate(-3514.912 -1133.388)"/><path class="a" d="M3556.145,1133.39v33.139l-.123-.081-.422-.282V1133.39Z" transform="translate(-3535.616 -1133.388)"/><line class="j" x1="4.388" y1="8.985" transform="translate(38.788 16.196)"/></g><g transform="translate(39.394 13.448)"><path class="a" d="M3298.167,1222.891h-25.9l-5.017-15.81a1.6,1.6,0,0,1,1.523-2.081h21.8a2.629,2.629,0,0,1,2.506,1.834Z" transform="translate(-3257.127 -1195.316)"/><path class="k" d="M3233.29,1178.584a4.485,4.485,0,0,1,4.485-4.484" transform="translate(-3227.352 -1168.161)"/><path class="k" d="M3208.15,1156.527a7.531,7.531,0,0,1,7.533-7.527" transform="translate(-3205.259 -1146.103)"/><path class="k" d="M3184.3,1135.523a10.423,10.423,0,0,1,10.423-10.423" transform="translate(-3184.3 -1125.1)"/></g><g transform="translate(70.533 34.96)"><path class="c" d="M3491.523,1322.61c-3.663,4.372-11.815,2.626-14.1,1.7-6.4-2.606-14.744-9.683-16.566-10.787a1.713,1.713,0,0,0-2.011-.072l-4.458,3.563a2.514,2.514,0,0,1-3.378-.069l-5.756-4.865-1.219.647a2.708,2.708,0,0,1-2.046.23,1.12,1.12,0,0,1-.242-2.013l9.381-5.909h0a14.957,14.957,0,0,1,8.19-2.443h.606a25.47,25.47,0,0,1,4.889.474l19.26,4.582C3490.19,1308.653,3497.782,1315.141,3491.523,1322.61Z" transform="translate(-3441.216 -1302.59)"/><line class="l" y1="2.793" x2="4.596" transform="translate(4.109 6.716)"/><line class="l" y1="2.619" x2="4.371" transform="translate(6.429 8.648)"/><line class="l" y1="2.62" x2="4.372" transform="translate(8.664 10.599)"/></g><g transform="translate(0 27.141)"><g transform="translate(10.225)"><path class="m" d="M3033.182,1268.406l-2.3,2.612a20.4,20.4,0,0,1-25.627,4.137l-21.782-12.75a1.971,1.971,0,0,0-2.486.413l-23.076,26.732-7.358-5.833a4.443,4.443,0,0,1-1.466-2.136l-.833-2.645a7.394,7.394,0,0,0-2.424-3.544l-2.2-1.761,28.206-30.61a15.182,15.182,0,0,1,19.626-2.4Z" transform="translate(-2943.63 -1238.075)"/><path class="m" d="M3190.08,1444.321l-19.308-.044a2.128,2.128,0,0,0-2.134,2.128v26.587h-9.356a4.45,4.45,0,0,1-2.479-.755l-2.3-1.544a7.379,7.379,0,0,0-4.11-1.252h-2.82c.028-.3.043-.606.043-.922V1437.5a10.068,10.068,0,0,1,15.15-8.69Z" transform="translate(-3122.852 -1404.471)"/></g><g transform="translate(0 35.553)"><g transform="translate(28.943 29.417)"><path class="a" d="M3125.142,1777.671v1.629a3.681,3.681,0,0,1-3.68,3.68H3098.07l2.629-2.286a9.928,9.928,0,0,0,3.373-6.574h2.82a7.381,7.381,0,0,1,4.11,1.252l2.3,1.544a4.449,4.449,0,0,0,2.479.755Z" transform="translate(-3098.07 -1774.12)"/><path class="n" d="M3125.142,1777.671v1.629a3.681,3.681,0,0,1-3.68,3.68H3098.07l2.629-2.286a9.928,9.928,0,0,0,3.373-6.574h2.82a7.381,7.381,0,0,1,4.11,1.252l2.3,1.544a4.449,4.449,0,0,0,2.479.755Z" transform="translate(-3098.07 -1774.12)"/><path class="n" d="M3138.13,1777.68v.88s-1.285,2.871-2.872,2.871H3112.85l.836-.727a9.929,9.929,0,0,0,3.373-6.574h2.82a7.379,7.379,0,0,1,4.11,1.252l2.3,1.544a4.448,4.448,0,0,0,2.479.755Z" transform="translate(-3111.059 -1774.129)"/><path class="o" d="M3125.142,1810.68v.749a3.681,3.681,0,0,1-3.68,3.68H3098.07l1.793-1.557h22.408C3123.857,1813.551,3125.142,1810.68,3125.142,1810.68Z" transform="translate(-3098.07 -1806.249)"/></g><path class="a" d="M2883.731,1547.342l-1.017,1.273a3.684,3.684,0,0,1-5.173.577l-18.271-14.606,3.481-.145a9.926,9.926,0,0,0,6.739-3.03l2.2,1.761a7.394,7.394,0,0,1,2.424,3.544l.834,2.645a4.434,4.434,0,0,0,1.464,2.136Z" transform="translate(-2859.27 -1531.41)"/><path class="n" d="M2883.731,1547.342l-1.017,1.273a3.684,3.684,0,0,1-5.173.577l-18.271-14.606,3.481-.145a9.926,9.926,0,0,0,6.739-3.03l2.2,1.761a7.394,7.394,0,0,1,2.424,3.544l.834,2.645a4.434,4.434,0,0,0,1.464,2.136Z" transform="translate(-2859.27 -1531.41)"/><path class="n" d="M2900.938,1547.342l-.549.687s-2.8,1.44-4.036.448l-17.5-13.99,1.108-.047a9.923,9.923,0,0,0,6.739-3.03l2.2,1.761a7.393,7.393,0,0,1,2.424,3.544l.834,2.645a4.434,4.434,0,0,0,1.464,2.136Z" transform="translate(-2876.477 -1531.41)"/><path class="o" d="M2883.182,1570.342l-.468.585a3.683,3.683,0,0,1-5.173.577L2859.27,1556.9l2.373-.1,17.5,13.99C2880.386,1571.782,2883.182,1570.342,2883.182,1570.342Z" transform="translate(-2859.27 -1553.723)"/></g></g><g transform="translate(85.053)"><g transform="translate(2.459 8.013)"><path class="p" d="M3581.3,1092.4l9.768-5.7-3.328-6.439-6.439,2.016Z" transform="translate(-3581.3 -1080.26)"/><path class="q" d="M3581.3,1097.4v10.06l9.768-5.7" transform="translate(-3581.3 -1095.323)"/><path class="a" d="M3581.3,1086.783l4.621-2.857a3.837,3.837,0,0,0,1.818-3.261v-.4l-6.439,2.016Z" transform="translate(-3581.3 -1080.26)"/></g><g transform="translate(1.188 1.923)"><path class="c" d="M3580.446,1034.51v.393a1.611,1.611,0,0,1-1.61,1.611h-1.107l-.219.427a3.529,3.529,0,0,1-2.921,1.916l-2.133.121a1.551,1.551,0,0,1-1.647-1.549v-4.769a2.649,2.649,0,0,1,2.649-2.649h.808a2.648,2.648,0,0,1,2.58,2.052l.331,1.429a1.306,1.306,0,0,1,1.091-.593h.562a1.611,1.611,0,0,1,1.615,1.612Z" transform="translate(-3570.809 -1030.01)"/><g transform="translate(0.09 2.491)"><path class="r" d="M3571.92,1052.75h1.4l-.292,2.888h.88" transform="translate(-3571.875 -1052.485)"/><line class="q" x2="1.733" y2="0.693" transform="translate(2.975)"/><path class="r" d="M3630.313,1062.63a1,1,0,0,0-1,1" transform="translate(-3622.309 -1061.167)"/><ellipse class="a" cx="0.282" cy="0.502" rx="0.282" ry="0.502" transform="translate(3.4 1.202)"/><ellipse class="a" cx="0.282" cy="0.502" rx="0.282" ry="0.502" transform="translate(0 1.202)"/><path class="r" d="M3585.067,1084.65h-.664a1.227,1.227,0,0,0-.813.308" transform="translate(-3582.131 -1080.518)"/></g></g><path class="a" d="M3571.137,1017.645a2.128,2.128,0,0,1-.494,1.367,1.59,1.59,0,0,0-.418-.056h-.564a1.307,1.307,0,0,0-1.091.593l-.331-1.429a2.627,2.627,0,0,0-.5-1.037,1.94,1.94,0,0,1-.879.606,2.084,2.084,0,0,1-.684.114,2.05,2.05,0,0,1-1.212-.387,1.8,1.8,0,0,1-.75-1.269,2.651,2.651,0,0,0-1.974,2.079,2.139,2.139,0,1,1,2.435-3.434,2.025,2.025,0,0,1,1.5-.644,1.929,1.929,0,0,1,1.945,1.548,2.111,2.111,0,0,1,.876-.188A2.139,2.139,0,0,1,3571.137,1017.645Z" transform="translate(-3561.009 -1014.148)"/></g></g><g transform="translate(132.08 82.799)"><path class="s" d="M4059.193,1787.65h9.243a1.74,1.74,0,0,1,1.74,1.74v5.615H4057.45v-5.616a1.74,1.74,0,0,1,1.743-1.739Z" transform="translate(-4044.635 -1714.333)"/><path class="t" d="M4135.156,1182.74v10.65a7.007,7.007,0,0,1-2.478,5.346h0a8.054,8.054,0,0,0-2.847,6.145v4.994a7.008,7.008,0,0,1-3.45,6.039h0a6.182,6.182,0,0,0-3.041,5.322v4.068a6.812,6.812,0,0,1-3.565,5.989l-1.675.908v-14a37.06,37.06,0,0,1,7.118-21.838Z" transform="translate(-4097.935 -1182.74)"/><path class="u" d="M4146.677,1182.74v10.65a7.005,7.005,0,0,1-2.479,5.347,8.061,8.061,0,0,0-2.846,6.144v4.994a7.01,7.01,0,0,1-3.45,6.039,6.176,6.176,0,0,0-2.228,2.257,6.1,6.1,0,0,0-.586,1.411l-3.879-12.095a37.019,37.019,0,0,1,5.534-11.122Z" transform="translate(-4109.455 -1182.74)"/><path class="t" d="M3969.766,1444.589v-5.362a31.449,31.449,0,0,0-11.077-23.961l-6.969-5.927v7.116a6.424,6.424,0,0,0,3.394,5.661h0a4.911,4.911,0,0,1,2.595,4.331v1.428a6.767,6.767,0,0,0,3.588,5.974h0a3.094,3.094,0,0,1,1.641,2.732h0a7.81,7.81,0,0,0,4.95,7.272Z" transform="translate(-3951.72 -1381.875)"/><path class="a" d="M4118.1,1602.226v-25.217a.336.336,0,1,1,.67,0v25.217Z" transform="translate(-4097.93 -1528.909)"/><path class="a" d="M4095.076,1688.471v-13.323a.336.336,0,1,1,.67,0v13.323Z" transform="translate(-4077.7 -1615.154)"/><path class="a" d="M4135,1691.712v-12.9a.336.336,0,0,1,.672,0v12.9Z" transform="translate(-4112.786 -1618.395)"/><circle class="s" cx="1.36" cy="1.36" r="1.36" transform="translate(21.578 57.988)"/><circle class="s" cx="1.36" cy="1.36" r="1.36" transform="translate(14.013 36.099)"/></g><g transform="translate(54.076 34.639)"><circle class="c" cx="10.49" cy="10.49" r="10.49" transform="translate(1.091 0.818)"/><circle class="v" cx="10.49" cy="10.49" r="10.49"/><circle class="a" cx="0.633" cy="0.633" r="0.633" transform="translate(9.857 1.544)"/><circle class="a" cx="0.633" cy="0.633" r="0.633" transform="translate(9.857 18.171)"/><circle class="a" cx="0.633" cy="0.633" r="0.633" transform="translate(1.544 9.857)"/><circle class="a" cx="0.633" cy="0.633" r="0.633" transform="translate(18.172 9.857)"/><path class="w" d="M3366.28,826.1l3.2,3.026,3.634-5.992" transform="translate(-3359.01 -818.345)"/></g></g></g></g></svg>