<svg xmlns="http://www.w3.org/2000/svg" width="15.218" height="17.28" viewBox="0 0 15.218 17.28">
  <g id="like" transform="translate(-30.556 0)">
    <g id="Group_21736" data-name="Group 21736" transform="translate(41.715 3.043)">
      <g id="Group_21735" data-name="Group 21735">
        <path id="Path_18367" data-name="Path 18367" d="M362.729,90.17h-1.014a.507.507,0,1,0,0,1.015h1.014a.507.507,0,1,0,0-1.015Z" transform="translate(-361.207 -90.17)" fill="#fff"/>
      </g>
    </g>
    <g id="Group_21738" data-name="Group 21738" transform="translate(36.643 0)">
      <g id="Group_21737" data-name="Group 21737" transform="translate(0)">
        <path id="Path_18368" data-name="Path 18368" d="M212.375,1.295,211.868.28a.507.507,0,1,0-.908.454l.507,1.014a.507.507,0,1,0,.907-.454Z" transform="translate(-210.907 0)" fill="#fff"/>
      </g>
    </g>
    <g id="Group_21740" data-name="Group 21740" transform="translate(40.194 0)">
      <g id="Group_21739" data-name="Group 21739">
        <path id="Path_18369" data-name="Path 18369" d="M317.354.053a.508.508,0,0,0-.681.227l-.507,1.014a.507.507,0,1,0,.908.454l.507-1.014A.507.507,0,0,0,317.354.053Z" transform="translate(-316.112 0)" fill="#fff"/>
      </g>
    </g>
    <g id="Group_21742" data-name="Group 21742" transform="translate(34.614 3.043)">
      <g id="Group_21741" data-name="Group 21741">
        <path id="Path_18370" data-name="Path 18370" d="M152.315,90.17H151.3a.507.507,0,1,0,0,1.015h1.014a.507.507,0,1,0,0-1.015Z" transform="translate(-150.793 -90.17)" fill="#fff"/>
      </g>
    </g>
    <g id="Group_21744" data-name="Group 21744" transform="translate(30.556 8.15)">
      <g id="Group_21743" data-name="Group 21743">
        <path id="Path_18371" data-name="Path 18371" d="M33.092,241.468H31.063a.507.507,0,0,0-.507.507v8.116a.507.507,0,0,0,.507.507h2.029a.507.507,0,0,0,.507-.507v-8.116A.507.507,0,0,0,33.092,241.468Z" transform="translate(-30.556 -241.468)" fill="#fff"/>
      </g>
    </g>
    <g id="Group_21746" data-name="Group 21746" transform="translate(34.614 3.077)">
      <g id="Group_21745" data-name="Group 21745" transform="translate(0)">
        <path id="Path_18372" data-name="Path 18372" d="M161.943,97.589a1.6,1.6,0,0,0-1.616-1.345h-3.955a8.758,8.758,0,0,0,.508-3,2.112,2.112,0,0,0-2.117-2.073h-.419a.507.507,0,0,0-.507.507,7.081,7.081,0,0,1-1.318,4.152,5.618,5.618,0,0,1-1.725,1.115v7.611a11.849,11.849,0,0,0,4.184.818H158.3a1.542,1.542,0,0,0,1.521-2.082,1.522,1.522,0,0,0,1.014-2.029,1.523,1.523,0,0,0,.733-2.483A1.519,1.519,0,0,0,161.943,97.589Z" transform="translate(-150.794 -91.172)" fill="#fff"/>
      </g>
    </g>
  </g>
</svg>
