<svg xmlns="http://www.w3.org/2000/svg" width="27" height="27" viewBox="0 0 27 27"><defs><style>.a{fill:#e9e9e9;}.a,.b{stroke:#525252;}.b,.d{fill:none;}.b{stroke-linecap:round;stroke-linejoin:round;}.c{stroke:none;}</style></defs><g transform="translate(-871 -9)"><g class="a" transform="translate(871 9)"><rect class="c" width="27" height="27" rx="4"/><rect class="d" x="0.5" y="0.5" width="26" height="26" rx="3.5"/></g><g transform="translate(875.838 13.239)"><path class="b" d="M8.638,6H4.253A1.253,1.253,0,0,0,3,7.253v8.77a1.253,1.253,0,0,0,1.253,1.253h8.77a1.253,1.253,0,0,0,1.253-1.253V11.638" transform="translate(0 -1.853)"/><path class="b" d="M18.577,3.207a1.329,1.329,0,0,1,1.879,1.879l-5.951,5.951L12,11.664l.626-2.506Z" transform="translate(-5.242 0)"/></g></g></svg>