<svg xmlns="http://www.w3.org/2000/svg" width="18.466" height="21.104" viewBox="0 0 18.466 21.104"><defs><style>.a{fill:#525252;}</style></defs><path class="a" d="M0,19.126A1.979,1.979,0,0,0,1.979,21.1H16.488a1.979,1.979,0,0,0,1.979-1.979V7.914H0Zm13.19-8.079a.5.5,0,0,1,.495-.495h1.649a.5.5,0,0,1,.495.495V12.7a.5.5,0,0,1-.495.495H13.685a.5.5,0,0,1-.495-.495Zm0,5.276a.5.5,0,0,1,.495-.495h1.649a.5.5,0,0,1,.495.495v1.649a.5.5,0,0,1-.495.495H13.685a.5.5,0,0,1-.495-.495ZM7.914,11.047a.5.5,0,0,1,.495-.495h1.649a.5.5,0,0,1,.495.495V12.7a.5.5,0,0,1-.495.495H8.409a.5.5,0,0,1-.495-.495Zm0,5.276a.5.5,0,0,1,.495-.495h1.649a.5.5,0,0,1,.495.495v1.649a.5.5,0,0,1-.495.495H8.409a.5.5,0,0,1-.495-.495ZM2.638,11.047a.5.5,0,0,1,.495-.495H4.781a.5.5,0,0,1,.495.495V12.7a.5.5,0,0,1-.495.495H3.133a.5.5,0,0,1-.495-.495Zm0,5.276a.5.5,0,0,1,.495-.495H4.781a.5.5,0,0,1,.495.495v1.649a.5.5,0,0,1-.495.495H3.133a.5.5,0,0,1-.495-.495ZM16.488,2.638H14.509V.66A.661.661,0,0,0,13.85,0H12.531a.661.661,0,0,0-.66.66V2.638H6.6V.66A.661.661,0,0,0,5.936,0H4.617a.661.661,0,0,0-.66.66V2.638H1.979A1.979,1.979,0,0,0,0,4.617V6.6H18.466V4.617A1.979,1.979,0,0,0,16.488,2.638Z"/></svg>