<svg xmlns="http://www.w3.org/2000/svg" width="14" height="14" viewBox="0 0 14 14"><defs><style>.a{fill:none;}.b{fill:#363636;}</style></defs><g transform="translate(-19 -11)"><rect class="a" width="14" height="14" transform="translate(19 11)"/><path class="b" d="M13.429,10.606,10.29,7.467A1.99,1.99,0,0,0,8,7.095L5.144,4.238V2.573L1.713,0,0,1.715,2.571,5.146H4.235L7.093,8a1.994,1.994,0,0,0,.373,2.289L10.6,13.431a1,1,0,0,0,1.413,0l1.413-1.413a1,1,0,0,0,0-1.413ZM8.888,6.031a2.82,2.82,0,0,1,2.008.831l.52.52a3.794,3.794,0,0,0,1.174-.791,3.855,3.855,0,0,0,1.016-3.664.321.321,0,0,0-.539-.147L11.073,4.774l-1.82-.3-.3-1.82L10.944.657a.324.324,0,0,0-.153-.541A3.861,3.861,0,0,0,7.13,1.131a3.8,3.8,0,0,0-1.1,2.777l2.2,2.2A2.92,2.92,0,0,1,8.888,6.031ZM6.1,8.228l-1.52-1.52L.5,10.8a1.715,1.715,0,0,0,2.426,2.426L6.238,9.909A2.878,2.878,0,0,1,6.1,8.228Zm-4.39,4.422a.643.643,0,1,1,.643-.643A.645.645,0,0,1,1.713,12.651Z" transform="translate(19.28 11.102)"/></g></svg>