<svg id="users" xmlns="http://www.w3.org/2000/svg" width="18" height="16" viewBox="0 0 18 16">
  <g id="Group_42214" data-name="Group 42214">
    <path id="Path_34463" data-name="Path 34463" d="M14.593,33.29a4.454,4.454,0,0,0,.337-6.312A4.508,4.508,0,0,0,9,26.312a4.508,4.508,0,0,0-6.262,1.075,4.456,4.456,0,0,0,.666,5.9A6.348,6.348,0,0,0,0,38.935v1.919a.641.641,0,0,0,.643.64H17.358a.641.641,0,0,0,.643-.64V38.935A6.348,6.348,0,0,0,14.593,33.29Zm-4.445-.452c-.064-.031-.129-.058-.186-.092.005-.006.008-.013.013-.02a4.481,4.481,0,0,0,.688-1.248l.02-.054a4.494,4.494,0,0,0,.17-.658c.006-.033.01-.064.015-.1a4.064,4.064,0,0,0,0-1.374c-.005-.033-.01-.064-.015-.1a4.5,4.5,0,0,0-.17-.658l-.02-.054a4.482,4.482,0,0,0-.688-1.248c-.005-.006-.008-.013-.013-.02a3.2,3.2,0,1,1,2.93,5.673c-.049.022-.1.043-.149.064a3.163,3.163,0,0,1-.489.152c-.032.007-.064.011-.1.017a3.231,3.231,0,0,1-.566.057c-.086,0-.172-.006-.257-.014a.488.488,0,0,1-.1-.006,3.26,3.26,0,0,1-1.051-.308C10.175,32.843,10.161,32.843,10.149,32.838Zm6.566,7.376H12.858V38.935c0-.2-.012-.4-.03-.595-.005-.058-.014-.115-.021-.172-.017-.141-.037-.281-.064-.42q-.017-.089-.037-.178-.046-.214-.107-.423c-.013-.046-.026-.093-.04-.138a6.324,6.324,0,0,0-.775-1.616l-.025-.036q-.166-.245-.354-.474l0-.006a5.814,5.814,0,0,0-.415-.459h.026a4.573,4.573,0,0,0,.547.038H11.6a4.568,4.568,0,0,0,.507-.033c.053-.006.1-.016.157-.024q.205-.031.4-.081c.038-.01.077-.019.115-.029a4.393,4.393,0,0,0,.514-.174,5.087,5.087,0,0,1,3.421,4.822v1.279Z" transform="translate(-0.001 -25.494)" fill="#bababa"/>
  </g>
</svg>
