<svg xmlns="http://www.w3.org/2000/svg" width="27" height="27" viewBox="0 0 27 27"><defs><style>.a{fill:#eccdcd;}.a,.b{stroke:#ac2022;}.b,.d{fill:none;}.b{stroke-linecap:round;stroke-linejoin:round;}.c{stroke:none;}</style></defs><g transform="translate(-871 -9)"><g class="a" transform="translate(871 9)"><rect class="c" width="27" height="27" rx="4"/><rect class="d" x="0.5" y="0.5" width="26" height="26" rx="3.5"/></g><g transform="translate(873.633 12.18)"><path class="b" d="M4.5,9H17.932" transform="translate(0 -3.015)"/><path class="b" d="M17.947,5.985V16.432a1.492,1.492,0,0,1-1.492,1.492H8.992A1.492,1.492,0,0,1,7.5,16.432V5.985m2.239,0V4.492A1.492,1.492,0,0,1,11.231,3h2.985a1.492,1.492,0,0,1,1.492,1.492V5.985" transform="translate(-1.508)"/><path class="b" d="M15,16.5v4.477" transform="translate(-5.276 -6.784)"/><path class="b" d="M21,16.5v4.477" transform="translate(-8.291 -6.784)"/></g></g></svg>