<svg xmlns="http://www.w3.org/2000/svg" width="14" height="14" viewBox="0 0 14 14"><defs><style>.a{fill:none;}.b{fill:#363636;}</style></defs><g transform="translate(-19 -11)"><rect class="a" width="14" height="14" transform="translate(19 11)"/><path class="b" d="M13.932,5.048,12.548.9A1.309,1.309,0,0,0,11.3,0H7.437V5.25h6.527A1.249,1.249,0,0,0,13.932,5.048ZM6.562,0H2.7A1.309,1.309,0,0,0,1.452.9L.068,5.048a1.249,1.249,0,0,0-.033.2H6.562ZM0,6.125v6.563A1.313,1.313,0,0,0,1.313,14H12.687A1.313,1.313,0,0,0,14,12.688V6.125Z" transform="translate(19 11)"/></g></svg>