<svg id="settings_1_" data-name="settings (1)" xmlns="http://www.w3.org/2000/svg" width="18" height="16.809" viewBox="0 0 18 16.809">
  <g id="Group_42225" data-name="Group 42225">
    <path id="Path_34477" data-name="Path 34477" d="M17.927,24.216a1.473,1.473,0,0,0-1.969-1.191.737.737,0,0,1-.9-.4,6.665,6.665,0,0,0-.668-1.162.718.718,0,0,1,.1-.985,1.442,1.442,0,0,0,.529-1.149,1.47,1.47,0,0,0-.587-1.148,9.017,9.017,0,0,0-1.94-1.12,1.492,1.492,0,0,0-.58-.118,1.453,1.453,0,0,0-1.442,1.214.719.719,0,0,1-.806.578,6.368,6.368,0,0,0-1.331,0,.72.72,0,0,1-.806-.578,1.453,1.453,0,0,0-1.442-1.214,1.486,1.486,0,0,0-.579.118,8.972,8.972,0,0,0-1.941,1.12,1.471,1.471,0,0,0-.586,1.147,1.446,1.446,0,0,0,.529,1.15.716.716,0,0,1,.1.983,6.669,6.669,0,0,0-.669,1.162.716.716,0,0,1-.908.4,1.458,1.458,0,0,0-1.96,1.195A8.989,8.989,0,0,0,0,25.343a8.857,8.857,0,0,0,.073,1.128,1.473,1.473,0,0,0,1.969,1.191.737.737,0,0,1,.9.4,6.665,6.665,0,0,0,.668,1.162.718.718,0,0,1-.1.985,1.442,1.442,0,0,0-.529,1.149,1.47,1.47,0,0,0,.587,1.147,9.017,9.017,0,0,0,1.94,1.121,1.492,1.492,0,0,0,.58.118,1.453,1.453,0,0,0,1.442-1.214.722.722,0,0,1,.806-.578,6.368,6.368,0,0,0,1.331,0,.721.721,0,0,1,.806.578,1.454,1.454,0,0,0,1.442,1.214,1.486,1.486,0,0,0,.579-.118,8.966,8.966,0,0,0,1.94-1.121,1.472,1.472,0,0,0,.587-1.147,1.446,1.446,0,0,0-.529-1.15.716.716,0,0,1-.1-.983,6.669,6.669,0,0,0,.669-1.162.716.716,0,0,1,.908-.4,1.442,1.442,0,0,0,.511.094,1.472,1.472,0,0,0,1.45-1.288A9.083,9.083,0,0,0,18,25.343,8.929,8.929,0,0,0,17.927,24.216ZM9,28.343a3,3,0,1,1,3-3A3,3,0,0,1,9,28.343Z" transform="translate(0 -16.939)" fill="#fff"/>
  </g>
</svg>
