<svg xmlns="http://www.w3.org/2000/svg" width="672.009" height="358.79" viewBox="0 0 672.009 358.79"><defs><style>.a,.ag,.ah,.as,.at,.aw,.b,.bh,.bj,.bl,.bm,.bo,.g,.i,.k{fill:none;}.a,.al,.b,.bb,.bd,.be,.bf,.bg,.bh,.bi,.bk,.bo,.bp,.l,.s,.t,.u,.v,.w,.y{stroke:#242424;}.a,.aa,.ab,.ad,.ag,.ah,.aj,.al,.ao,.ap,.as,.at,.aw,.b,.ba,.bh,.bj,.bl,.bm,.bo,.d,.e,.g,.i,.j,.k,.l,.p,.s,.y,.z{stroke-linecap:round;}.a,.aa,.ab,.ad,.af,.ag,.ah,.aj,.al,.an,.ao,.ap,.aw,.b,.ba,.bh,.bj,.bl,.d,.g,.i,.j,.k,.l,.m,.p,.s,.v,.z{stroke-miterlimit:10;}.b{stroke-width:2px;}.c{fill:#f7f7f7;}.ac,.ai,.ak,.am,.aq,.ar,.bq,.c,.f{stroke:#707070;}.aa,.ab,.af,.aj,.am,.au,.az,.bc,.be,.bg,.d,.e,.j,.m,.o,.s,.v{fill:#fff;}.aj,.bl,.d,.g,.p{stroke:#59221d;}.e,.i,.j{stroke:#363636;}.as,.at,.bm,.bo,.e{stroke-linejoin:round;}.f,.w,.x{fill:#d0d0d0;}.ac,.an,.ba,.bb,.bi,.h,.l,.y{fill:#242424;}.k{stroke:#838383;}.bj,.m,.o{stroke:#6d1214;}.n{fill:#44080a;}.bk,.p{fill:#59221d;}.q,.u{fill:#6d1214;}.r,.t{fill:#ac2022;}.al,.ap,.aq,.bp,.z{fill:#525252;}.aa,.ag,.ah,.an,.ba,.z{stroke:#525252;}.ab,.af,.at,.au,.aw{stroke:#2f2f2f;}.ad,.ao,.ap{stroke:#000;}.ae,.bq{fill:#e8e8e8;}.ag,.aj,.ao,.as,.bl{stroke-width:5px;}.ai{fill:#a74602;}.ak{fill:#98c8db;}.as,.bm{stroke:#fff;}.av{fill:#d6d6d6;}.ax{fill:#2b2b2b;}.ay{fill:#dedede;}.bc{stroke:#ac2022;}.bf,.bn{fill:#c3c3c3;}.bg,.bh,.bi{stroke-width:0.5px;}</style></defs><g transform="translate(0.5 31.573)"><g transform="translate(0 2.5)"><g transform="translate(14.414 280.253)"><line class="a" x2="230.37" transform="translate(246.178 43.964)"/><line class="a" x2="227.365"/><line class="a" x2="115.835" transform="translate(511.689 43.964)"/></g><g transform="translate(125.491)"><path class="b" d="M1220.51,263.542V24.489A21.989,21.989,0,0,1,1242.5,2.5h51.506" transform="translate(-1146.876 -2.5)"/><path class="b" d="M842.682,24.489A21.989,21.989,0,0,0,820.693,2.5H769.18" transform="translate(-769.18 -2.5)"/><rect class="c" width="27.5" height="5.997" rx="2.999" transform="translate(119.635 2.553)"/><rect class="c" width="27.5" height="5.997" rx="2.999" transform="translate(0 2.553)"/></g><g transform="translate(234.444 49.201)"><path class="d" d="M1437,445.639V347.547l142.962-43.477,141.81,43.477v98.091Z" transform="translate(-1437 -304.07)"/><rect class="d" width="98.715" height="98.091" transform="translate(284.632 43.477)"/><path class="e" d="M2552.76,347.547,2410.948,304.07H2312.4l141.812,43.477Z" transform="translate(-2169.58 -304.07)"/><path class="f" d="M0,0H68.41V6.054H0Z" transform="translate(302.534 66.413)"/><rect class="a" width="68.41" height="6.054" transform="translate(300.792 65.047)"/><line class="g" y1="6.054" transform="translate(335.099 65.047)"/><path class="h" d="M1790.116,593.13v94.409L1538.67,615.956V593.13Z" transform="translate(-1522.083 -545.97)"/><rect class="i" width="251.446" height="94.409" transform="translate(16.587 47.16)"/><rect class="j" width="251.598" height="15.378" transform="translate(16.587 47.16)"/><line class="i" x1="251.514" transform="translate(16.587 50.968)"/><line class="i" x1="251.514" transform="translate(16.587 54.82)"/><line class="i" x1="251.514" transform="translate(16.587 58.67)"/><line class="k" y2="77.938" transform="translate(190.536 62.536)"/><rect class="l" width="25.533" height="15.05" transform="translate(241.602 125.657)"/><rect class="l" width="25.533" height="15.05" transform="translate(241.602 110.605)"/><rect class="m" width="25.533" height="15.05" transform="translate(216.069 125.657)"/><rect class="n" width="25.941" height="15.05" transform="translate(216.028 110.605)"/><path class="o" d="M0,0H25.533V15.05H0Z" transform="translate(216.069 80.504)"/><rect class="m" width="25.533" height="15.05" transform="translate(241.602 95.554)"/><rect class="p" width="25.533" height="15.05" transform="translate(165.005 125.657)"/><rect class="m" width="25.533" height="15.05" transform="translate(190.536 125.657)"/><rect class="m" width="25.533" height="15.05" transform="translate(190.536 110.605)"/><rect class="m" width="25.533" height="15.05" transform="translate(216.069 95.554)"/><circle class="q" cx="0.812" cy="0.812" r="0.812" transform="translate(227.984 96.881)"/><circle class="q" cx="0.812" cy="0.812" r="0.812" transform="translate(222.862 96.881)"/><circle class="q" cx="0.812" cy="0.812" r="0.812" transform="translate(233.105 96.881)"/><circle class="q" cx="0.812" cy="0.812" r="0.812" transform="translate(238.226 96.881)"/><circle class="q" cx="0.812" cy="0.812" r="0.812" transform="translate(217.741 96.881)"/><circle class="q" cx="0.812" cy="0.812" r="0.812" transform="translate(225.424 99.55)"/><circle class="q" cx="0.812" cy="0.812" r="0.812" transform="translate(220.303 99.55)"/><circle class="q" cx="0.812" cy="0.812" r="0.812" transform="translate(230.545 99.55)"/><circle class="q" cx="0.812" cy="0.812" r="0.812" transform="translate(235.666 99.55)"/><circle class="q" cx="0.812" cy="0.812" r="0.812" transform="translate(227.984 102.217)"/><circle class="q" cx="0.812" cy="0.812" r="0.812" transform="translate(222.862 102.217)"/><circle class="q" cx="0.812" cy="0.812" r="0.812" transform="translate(233.105 102.217)"/><circle class="q" cx="0.812" cy="0.812" r="0.812" transform="translate(238.226 102.217)"/><circle class="q" cx="0.812" cy="0.812" r="0.812" transform="translate(217.741 102.217)"/><circle class="q" cx="0.812" cy="0.812" r="0.812" transform="translate(225.424 104.886)"/><circle class="q" cx="0.812" cy="0.812" r="0.812" transform="translate(220.303 104.886)"/><circle class="q" cx="0.812" cy="0.812" r="0.812" transform="translate(230.545 104.886)"/><circle class="q" cx="0.812" cy="0.812" r="0.812" transform="translate(235.666 104.886)"/><circle class="q" cx="0.812" cy="0.812" r="0.812" transform="translate(227.984 107.554)"/><circle class="q" cx="0.812" cy="0.812" r="0.812" transform="translate(222.862 107.554)"/><circle class="q" cx="0.812" cy="0.812" r="0.812" transform="translate(233.105 107.554)"/><circle class="q" cx="0.812" cy="0.812" r="0.812" transform="translate(238.226 107.554)"/><circle class="q" cx="0.812" cy="0.812" r="0.812" transform="translate(217.741 107.554)"/><circle class="r" cx="0.863" cy="0.863" r="0.863" transform="translate(206.179 2.371)"/><circle class="r" cx="0.863" cy="0.863" r="0.863" transform="translate(211.613 2.371)"/><circle class="r" cx="0.863" cy="0.863" r="0.863" transform="translate(217.048 2.371)"/><circle class="r" cx="0.863" cy="0.863" r="0.863" transform="translate(222.482 2.371)"/><circle class="r" cx="0.863" cy="0.863" r="0.863" transform="translate(227.917 2.371)"/><circle class="r" cx="0.863" cy="0.863" r="0.863" transform="translate(233.351 2.371)"/><circle class="r" cx="0.863" cy="0.863" r="0.863" transform="translate(238.786 2.371)"/><circle class="r" cx="0.863" cy="0.863" r="0.863" transform="translate(168.139 2.371)"/><circle class="r" cx="0.863" cy="0.863" r="0.863" transform="translate(162.706 2.371)"/><circle class="r" cx="0.863" cy="0.863" r="0.863" transform="translate(173.574 2.371)"/><circle class="r" cx="0.863" cy="0.863" r="0.863" transform="translate(179.008 2.371)"/><circle class="r" cx="0.863" cy="0.863" r="0.863" transform="translate(184.443 2.371)"/><circle class="r" cx="0.863" cy="0.863" r="0.863" transform="translate(189.877 2.371)"/><circle class="r" cx="0.863" cy="0.863" r="0.863" transform="translate(195.311 2.371)"/><circle class="r" cx="0.863" cy="0.863" r="0.863" transform="translate(200.746 2.371)"/><circle class="r" cx="0.863" cy="0.863" r="0.863" transform="translate(219.608 5.188)"/><circle class="r" cx="0.863" cy="0.863" r="0.863" transform="translate(225.04 5.188)"/><circle class="r" cx="0.863" cy="0.863" r="0.863" transform="translate(230.475 5.188)"/><circle class="r" cx="0.863" cy="0.863" r="0.863" transform="translate(235.909 5.188)"/><circle class="r" cx="0.863" cy="0.863" r="0.863" transform="translate(241.344 5.188)"/><circle class="r" cx="0.863" cy="0.863" r="0.863" transform="translate(246.778 5.188)"/><circle class="r" cx="0.863" cy="0.863" r="0.863" transform="translate(252.213 5.188)"/><circle class="r" cx="0.863" cy="0.863" r="0.863" transform="translate(181.568 5.188)"/><circle class="r" cx="0.863" cy="0.863" r="0.863" transform="translate(176.133 5.188)"/><circle class="r" cx="0.863" cy="0.863" r="0.863" transform="translate(187.001 5.188)"/><circle class="r" cx="0.863" cy="0.863" r="0.863" transform="translate(192.435 5.188)"/><circle class="r" cx="0.863" cy="0.863" r="0.863" transform="translate(197.87 5.188)"/><circle class="r" cx="0.863" cy="0.863" r="0.863" transform="translate(203.304 5.188)"/><circle class="r" cx="0.863" cy="0.863" r="0.863" transform="translate(208.739 5.188)"/><circle class="r" cx="0.863" cy="0.863" r="0.863" transform="translate(214.173 5.188)"/><circle class="r" cx="0.863" cy="0.863" r="0.863" transform="translate(170.699 5.188)"/><circle class="r" cx="0.863" cy="0.863" r="0.863" transform="translate(222.412 8.006)"/><circle class="r" cx="0.863" cy="0.863" r="0.863" transform="translate(227.847 8.006)"/><circle class="r" cx="0.863" cy="0.863" r="0.863" transform="translate(233.281 8.006)"/><circle class="r" cx="0.863" cy="0.863" r="0.863" transform="translate(238.715 8.006)"/><circle class="r" cx="0.863" cy="0.863" r="0.863" transform="translate(244.15 8.006)"/><circle class="r" cx="0.863" cy="0.863" r="0.863" transform="translate(249.583 8.006)"/><circle class="r" cx="0.863" cy="0.863" r="0.863" transform="translate(255.017 8.006)"/><circle class="r" cx="0.863" cy="0.863" r="0.863" transform="translate(184.372 8.006)"/><circle class="r" cx="0.863" cy="0.863" r="0.863" transform="translate(178.938 8.006)"/><circle class="r" cx="0.863" cy="0.863" r="0.863" transform="translate(189.807 8.006)"/><circle class="r" cx="0.863" cy="0.863" r="0.863" transform="translate(195.241 8.006)"/><circle class="r" cx="0.863" cy="0.863" r="0.863" transform="translate(200.676 8.006)"/><circle class="r" cx="0.863" cy="0.863" r="0.863" transform="translate(206.11 8.006)"/><circle class="r" cx="0.863" cy="0.863" r="0.863" transform="translate(211.543 8.006)"/><circle class="r" cx="0.863" cy="0.863" r="0.863" transform="translate(216.978 8.006)"/><circle class="r" cx="0.863" cy="0.863" r="0.863" transform="translate(236.007 10.541)"/><circle class="r" cx="0.863" cy="0.863" r="0.863" transform="translate(241.442 10.541)"/><circle class="r" cx="0.863" cy="0.863" r="0.863" transform="translate(246.876 10.541)"/><circle class="r" cx="0.863" cy="0.863" r="0.863" transform="translate(252.311 10.541)"/><circle class="r" cx="0.863" cy="0.863" r="0.863" transform="translate(257.743 10.541)"/><circle class="r" cx="0.863" cy="0.863" r="0.863" transform="translate(263.178 10.541)"/><circle class="r" cx="0.863" cy="0.863" r="0.863" transform="translate(268.612 10.541)"/><circle class="r" cx="0.863" cy="0.863" r="0.863" transform="translate(197.968 10.541)"/><circle class="r" cx="0.863" cy="0.863" r="0.863" transform="translate(192.533 10.541)"/><circle class="r" cx="0.863" cy="0.863" r="0.863" transform="translate(203.402 10.541)"/><circle class="r" cx="0.863" cy="0.863" r="0.863" transform="translate(208.837 10.541)"/><circle class="r" cx="0.863" cy="0.863" r="0.863" transform="translate(214.271 10.541)"/><circle class="r" cx="0.863" cy="0.863" r="0.863" transform="translate(219.704 10.541)"/><circle class="r" cx="0.863" cy="0.863" r="0.863" transform="translate(225.138 10.541)"/><circle class="r" cx="0.863" cy="0.863" r="0.863" transform="translate(230.573 10.541)"/><circle class="r" cx="0.863" cy="0.863" r="0.863" transform="translate(187.099 10.541)"/><circle class="r" cx="0.863" cy="0.863" r="0.863" transform="translate(244.336 13.416)"/><circle class="r" cx="0.863" cy="0.863" r="0.863" transform="translate(249.769 13.416)"/><circle class="r" cx="0.863" cy="0.863" r="0.863" transform="translate(255.203 13.416)"/><circle class="r" cx="0.863" cy="0.863" r="0.863" transform="translate(260.638 13.416)"/><circle class="r" cx="0.863" cy="0.863" r="0.863" transform="translate(266.072 13.416)"/><circle class="r" cx="0.863" cy="0.863" r="0.863" transform="translate(271.507 13.416)"/><circle class="r" cx="0.863" cy="0.863" r="0.863" transform="translate(276.941 13.416)"/><circle class="r" cx="0.863" cy="0.863" r="0.863" transform="translate(206.296 13.416)"/><circle class="r" cx="0.863" cy="0.863" r="0.863" transform="translate(200.862 13.416)"/><circle class="r" cx="0.863" cy="0.863" r="0.863" transform="translate(211.729 13.416)"/><circle class="r" cx="0.863" cy="0.863" r="0.863" transform="translate(217.164 13.416)"/><circle class="r" cx="0.863" cy="0.863" r="0.863" transform="translate(222.598 13.416)"/><circle class="r" cx="0.863" cy="0.863" r="0.863" transform="translate(228.033 13.416)"/><circle class="r" cx="0.863" cy="0.863" r="0.863" transform="translate(233.467 13.416)"/><circle class="r" cx="0.863" cy="0.863" r="0.863" transform="translate(238.902 13.416)"/><circle class="r" cx="0.863" cy="0.863" r="0.863" transform="translate(257.929 16.289)"/><circle class="r" cx="0.863" cy="0.863" r="0.863" transform="translate(263.364 16.289)"/><circle class="r" cx="0.863" cy="0.863" r="0.863" transform="translate(268.798 16.289)"/><circle class="r" cx="0.863" cy="0.863" r="0.863" transform="translate(274.233 16.289)"/><circle class="r" cx="0.863" cy="0.863" r="0.863" transform="translate(279.667 16.289)"/><circle class="r" cx="0.863" cy="0.863" r="0.863" transform="translate(285.102 16.289)"/><circle class="r" cx="0.863" cy="0.863" r="0.863" transform="translate(290.535 16.289)"/><circle class="r" cx="0.863" cy="0.863" r="0.863" transform="translate(219.89 16.289)"/><circle class="r" cx="0.863" cy="0.863" r="0.863" transform="translate(214.455 16.289)"/><circle class="r" cx="0.863" cy="0.863" r="0.863" transform="translate(225.324 16.289)"/><circle class="r" cx="0.863" cy="0.863" r="0.863" transform="translate(230.759 16.289)"/><circle class="r" cx="0.863" cy="0.863" r="0.863" transform="translate(236.193 16.289)"/><circle class="r" cx="0.863" cy="0.863" r="0.863" transform="translate(241.628 16.289)"/><circle class="r" cx="0.863" cy="0.863" r="0.863" transform="translate(247.062 16.289)"/><circle class="r" cx="0.863" cy="0.863" r="0.863" transform="translate(252.495 16.289)"/><circle class="r" cx="0.863" cy="0.863" r="0.863" transform="translate(209.022 16.289)"/><circle class="r" cx="0.863" cy="0.863" r="0.863" transform="translate(266.09 19.162)"/><circle class="r" cx="0.863" cy="0.863" r="0.863" transform="translate(271.525 19.162)"/><circle class="r" cx="0.863" cy="0.863" r="0.863" transform="translate(276.959 19.162)"/><circle class="r" cx="0.863" cy="0.863" r="0.863" transform="translate(282.394 19.162)"/><circle class="r" cx="0.863" cy="0.863" r="0.863" transform="translate(287.828 19.162)"/><circle class="r" cx="0.863" cy="0.863" r="0.863" transform="translate(293.263 19.162)"/><circle class="r" cx="0.863" cy="0.863" r="0.863" transform="translate(298.695 19.162)"/><circle class="r" cx="0.863" cy="0.863" r="0.863" transform="translate(228.05 19.162)"/><circle class="r" cx="0.863" cy="0.863" r="0.863" transform="translate(222.616 19.162)"/><circle class="r" cx="0.863" cy="0.863" r="0.863" transform="translate(233.485 19.162)"/><circle class="r" cx="0.863" cy="0.863" r="0.863" transform="translate(238.919 19.162)"/><circle class="r" cx="0.863" cy="0.863" r="0.863" transform="translate(244.354 19.162)"/><circle class="r" cx="0.863" cy="0.863" r="0.863" transform="translate(249.788 19.162)"/><circle class="r" cx="0.863" cy="0.863" r="0.863" transform="translate(255.223 19.162)"/><circle class="r" cx="0.863" cy="0.863" r="0.863" transform="translate(260.656 19.162)"/><circle class="r" cx="0.863" cy="0.863" r="0.863" transform="translate(274.331 22.036)"/><circle class="r" cx="0.863" cy="0.863" r="0.863" transform="translate(279.765 22.036)"/><circle class="r" cx="0.863" cy="0.863" r="0.863" transform="translate(285.198 22.036)"/><circle class="r" cx="0.863" cy="0.863" r="0.863" transform="translate(290.633 22.036)"/><circle class="r" cx="0.863" cy="0.863" r="0.863" transform="translate(296.067 22.036)"/><circle class="r" cx="0.863" cy="0.863" r="0.863" transform="translate(301.502 22.036)"/><circle class="r" cx="0.863" cy="0.863" r="0.863" transform="translate(306.936 22.036)"/><circle class="r" cx="0.863" cy="0.863" r="0.863" transform="translate(236.291 22.036)"/><circle class="r" cx="0.863" cy="0.863" r="0.863" transform="translate(230.857 22.036)"/><circle class="r" cx="0.863" cy="0.863" r="0.863" transform="translate(241.726 22.036)"/><circle class="r" cx="0.863" cy="0.863" r="0.863" transform="translate(247.158 22.036)"/><circle class="r" cx="0.863" cy="0.863" r="0.863" transform="translate(252.593 22.036)"/><circle class="r" cx="0.863" cy="0.863" r="0.863" transform="translate(258.027 22.036)"/><circle class="r" cx="0.863" cy="0.863" r="0.863" transform="translate(263.462 22.036)"/><circle class="r" cx="0.863" cy="0.863" r="0.863" transform="translate(268.896 22.036)"/><circle class="r" cx="0.863" cy="0.863" r="0.863" transform="translate(225.422 22.036)"/><circle class="r" cx="0.863" cy="0.863" r="0.863" transform="translate(282.826 24.909)"/><circle class="r" cx="0.863" cy="0.863" r="0.863" transform="translate(288.26 24.909)"/><circle class="r" cx="0.863" cy="0.863" r="0.863" transform="translate(293.695 24.909)"/><circle class="r" cx="0.863" cy="0.863" r="0.863" transform="translate(299.128 24.909)"/><circle class="r" cx="0.863" cy="0.863" r="0.863" transform="translate(304.562 24.909)"/><circle class="r" cx="0.863" cy="0.863" r="0.863" transform="translate(309.997 24.909)"/><circle class="r" cx="0.863" cy="0.863" r="0.863" transform="translate(315.431 24.909)"/><circle class="r" cx="0.863" cy="0.863" r="0.863" transform="translate(244.786 24.909)"/><circle class="r" cx="0.863" cy="0.863" r="0.863" transform="translate(239.352 24.909)"/><circle class="r" cx="0.863" cy="0.863" r="0.863" transform="translate(250.221 24.909)"/><circle class="r" cx="0.863" cy="0.863" r="0.863" transform="translate(255.655 24.909)"/><circle class="r" cx="0.863" cy="0.863" r="0.863" transform="translate(261.088 24.909)"/><circle class="r" cx="0.863" cy="0.863" r="0.863" transform="translate(266.523 24.909)"/><circle class="r" cx="0.863" cy="0.863" r="0.863" transform="translate(271.957 24.909)"/><circle class="r" cx="0.863" cy="0.863" r="0.863" transform="translate(277.391 24.909)"/><circle class="r" cx="0.863" cy="0.863" r="0.863" transform="translate(296.421 27.867)"/><circle class="r" cx="0.863" cy="0.863" r="0.863" transform="translate(301.854 27.867)"/><circle class="r" cx="0.863" cy="0.863" r="0.863" transform="translate(307.288 27.867)"/><circle class="r" cx="0.863" cy="0.863" r="0.863" transform="translate(312.723 27.867)"/><circle class="r" cx="0.863" cy="0.863" r="0.863" transform="translate(318.157 27.867)"/><circle class="r" cx="0.863" cy="0.863" r="0.863" transform="translate(323.592 27.867)"/><circle class="r" cx="0.863" cy="0.863" r="0.863" transform="translate(329.026 27.867)"/><circle class="r" cx="0.863" cy="0.863" r="0.863" transform="translate(258.381 27.867)"/><circle class="r" cx="0.863" cy="0.863" r="0.863" transform="translate(252.947 27.867)"/><circle class="r" cx="0.863" cy="0.863" r="0.863" transform="translate(263.814 27.867)"/><circle class="r" cx="0.863" cy="0.863" r="0.863" transform="translate(269.249 27.867)"/><circle class="r" cx="0.863" cy="0.863" r="0.863" transform="translate(274.683 27.867)"/><circle class="r" cx="0.863" cy="0.863" r="0.863" transform="translate(280.118 27.867)"/><circle class="r" cx="0.863" cy="0.863" r="0.863" transform="translate(285.552 27.867)"/><circle class="r" cx="0.863" cy="0.863" r="0.863" transform="translate(290.987 27.867)"/><circle class="r" cx="0.863" cy="0.863" r="0.863" transform="translate(247.512 27.867)"/><circle class="r" cx="0.863" cy="0.863" r="0.863" transform="translate(304.916 30.825)"/><circle class="r" cx="0.863" cy="0.863" r="0.863" transform="translate(310.351 30.825)"/><circle class="r" cx="0.863" cy="0.863" r="0.863" transform="translate(315.784 30.825)"/><circle class="r" cx="0.863" cy="0.863" r="0.863" transform="translate(321.218 30.825)"/><circle class="r" cx="0.863" cy="0.863" r="0.863" transform="translate(326.652 30.825)"/><circle class="r" cx="0.863" cy="0.863" r="0.863" transform="translate(332.087 30.825)"/><circle class="r" cx="0.863" cy="0.863" r="0.863" transform="translate(337.521 30.825)"/><circle class="r" cx="0.863" cy="0.863" r="0.863" transform="translate(266.877 30.825)"/><circle class="r" cx="0.863" cy="0.863" r="0.863" transform="translate(261.442 30.825)"/><circle class="r" cx="0.863" cy="0.863" r="0.863" transform="translate(272.311 30.825)"/><circle class="r" cx="0.863" cy="0.863" r="0.863" transform="translate(277.744 30.825)"/><circle class="r" cx="0.863" cy="0.863" r="0.863" transform="translate(283.178 30.825)"/><circle class="r" cx="0.863" cy="0.863" r="0.863" transform="translate(288.613 30.825)"/><circle class="r" cx="0.863" cy="0.863" r="0.863" transform="translate(294.047 30.825)"/><circle class="r" cx="0.863" cy="0.863" r="0.863" transform="translate(299.482 30.825)"/><circle class="r" cx="0.863" cy="0.863" r="0.863" transform="translate(318.678 33.783)"/><circle class="r" cx="0.863" cy="0.863" r="0.863" transform="translate(324.112 33.783)"/><circle class="r" cx="0.863" cy="0.863" r="0.863" transform="translate(329.547 33.783)"/><circle class="r" cx="0.863" cy="0.863" r="0.863" transform="translate(334.981 33.783)"/><circle class="r" cx="0.863" cy="0.863" r="0.863" transform="translate(340.416 33.783)"/><circle class="r" cx="0.863" cy="0.863" r="0.863" transform="translate(345.849 33.783)"/><circle class="r" cx="0.863" cy="0.863" r="0.863" transform="translate(280.638 33.783)"/><circle class="r" cx="0.863" cy="0.863" r="0.863" transform="translate(275.204 33.783)"/><circle class="r" cx="0.863" cy="0.863" r="0.863" transform="translate(286.073 33.783)"/><circle class="r" cx="0.863" cy="0.863" r="0.863" transform="translate(291.507 33.783)"/><circle class="r" cx="0.863" cy="0.863" r="0.863" transform="translate(296.942 33.783)"/><circle class="r" cx="0.863" cy="0.863" r="0.863" transform="translate(302.376 33.783)"/><circle class="r" cx="0.863" cy="0.863" r="0.863" transform="translate(307.809 33.783)"/><circle class="r" cx="0.863" cy="0.863" r="0.863" transform="translate(313.243 33.783)"/><circle class="r" cx="0.863" cy="0.863" r="0.863" transform="translate(269.769 33.783)"/><circle class="r" cx="0.863" cy="0.863" r="0.863" transform="translate(335.246 39.701)"/><circle class="r" cx="0.863" cy="0.863" r="0.863" transform="translate(340.68 39.701)"/><circle class="r" cx="0.863" cy="0.863" r="0.863" transform="translate(346.114 39.701)"/><circle class="r" cx="0.863" cy="0.863" r="0.863" transform="translate(351.549 39.701)"/><circle class="r" cx="0.863" cy="0.863" r="0.863" transform="translate(356.982 39.701)"/><circle class="r" cx="0.863" cy="0.863" r="0.863" transform="translate(362.416 39.701)"/><circle class="r" cx="0.863" cy="0.863" r="0.863" transform="translate(367.851 39.701)"/><circle class="r" cx="0.863" cy="0.863" r="0.863" transform="translate(297.206 39.701)"/><circle class="r" cx="0.863" cy="0.863" r="0.863" transform="translate(291.771 39.701)"/><circle class="r" cx="0.863" cy="0.863" r="0.863" transform="translate(302.64 39.701)"/><circle class="r" cx="0.863" cy="0.863" r="0.863" transform="translate(308.075 39.701)"/><circle class="r" cx="0.863" cy="0.863" r="0.863" transform="translate(313.509 39.701)"/><circle class="r" cx="0.863" cy="0.863" r="0.863" transform="translate(318.942 39.701)"/><circle class="r" cx="0.863" cy="0.863" r="0.863" transform="translate(324.377 39.701)"/><circle class="r" cx="0.863" cy="0.863" r="0.863" transform="translate(329.811 39.701)"/><circle class="r" cx="0.863" cy="0.863" r="0.863" transform="translate(286.337 39.701)"/><circle class="r" cx="0.863" cy="0.863" r="0.863" transform="translate(321.65 36.743)"/><circle class="r" cx="0.863" cy="0.863" r="0.863" transform="translate(327.085 36.743)"/><circle class="r" cx="0.863" cy="0.863" r="0.863" transform="translate(332.519 36.743)"/><circle class="r" cx="0.863" cy="0.863" r="0.863" transform="translate(337.954 36.743)"/><circle class="r" cx="0.863" cy="0.863" r="0.863" transform="translate(343.388 36.743)"/><circle class="r" cx="0.863" cy="0.863" r="0.863" transform="translate(348.823 36.743)"/><circle class="r" cx="0.863" cy="0.863" r="0.863" transform="translate(354.256 36.743)"/><circle class="r" cx="0.863" cy="0.863" r="0.863" transform="translate(283.611 36.743)"/><circle class="r" cx="0.863" cy="0.863" r="0.863" transform="translate(278.176 36.743)"/><circle class="r" cx="0.863" cy="0.863" r="0.863" transform="translate(289.045 36.743)"/><circle class="r" cx="0.863" cy="0.863" r="0.863" transform="translate(294.48 36.743)"/><circle class="r" cx="0.863" cy="0.863" r="0.863" transform="translate(299.914 36.743)"/><circle class="r" cx="0.863" cy="0.863" r="0.863" transform="translate(305.349 36.743)"/><circle class="r" cx="0.863" cy="0.863" r="0.863" transform="translate(310.783 36.743)"/><circle class="r" cx="0.863" cy="0.863" r="0.863" transform="translate(316.216 36.743)"/></g><g transform="translate(512.317 144.421)"><g transform="translate(3.364 11.523)"><circle class="l" cx="3.885" cy="3.885" r="3.885" transform="translate(32.747 35.945)"/><path class="s" d="M3386.382,992.872V958.34h-16.8a11.5,11.5,0,0,0-9.985,5.793l-12.443,21.757,11.184,6.983Z" transform="translate(-3316.749 -958.34)"/><path class="s" d="M3456.385,992.872V958.34h-3.157a11.5,11.5,0,0,0-9.985,5.793L3430.8,985.889l11.179,6.978Z" transform="translate(-3386.752 -958.34)"/><path class="t" d="M3377.35,1132v3.9a1.916,1.916,0,0,1-1.916,1.914h-37.389a1.914,1.914,0,0,1-1.878-1.539c-.46-2.284-.93-7.063,1.143-11.094h14.458l11.179,6.821Z" transform="translate(-3307.227 -1097.96)"/><path class="l" d="M3412.05,1174.711a5.441,5.441,0,1,1,10.881,0Z" transform="translate(-3371.061 -1134.857)"/><circle class="s" cx="3.885" cy="3.885" r="3.885" transform="translate(42.546 35.945)"/><circle class="s" cx="3.885" cy="3.885" r="3.885" transform="translate(59.203 35.945)"/><path class="a" d="M3175.3,1141.41l16,9.986h10.326l-16-9.986H3160.81" transform="translate(-3160.81 -1111.542)"/></g><path class="u" d="M0,0H28.538V12.7H0Z" transform="translate(0 28.261)"/><rect class="v" width="24.732" height="13.935" transform="translate(3.361 13.917)"/><rect class="v" width="24.732" height="13.935" transform="translate(3.361)"/><path class="w" d="M3163.14,1060.92h24.8v3.506Z" transform="translate(-3159.396 -1032.661)"/><path class="x" d="M3187.657,975.42v13.135h-6.446V978.129L3163.8,975.81v-.39Z" transform="translate(-3159.948 -961.11)"/></g><g transform="translate(0 136.43)"><g transform="translate(160.814 0.535)"><path class="y" d="M0,0H246.53V4.248H0Z" transform="translate(0 104.59)"/><rect class="z" width="24.404" height="104.59"/><rect class="aa" width="222.127" height="104.59" transform="translate(24.404)"/><rect class="h" width="221.696" height="4.294" transform="translate(24.404 10.791)"/><rect class="h" width="221.696" height="4.294" transform="translate(24.404 86.265)"/></g><path class="ab" d="M5.661,1559.72h8.055v9.156H3.18V1562.2A2.481,2.481,0,0,1,5.661,1559.72Z" transform="translate(-2.661 -1442.091)"/><path class="ac" d="M151.975,1532.532a12.937,12.937,0,0,1-7.57-2.517c-4.383-3.117-7.378-9.022-7.378-15.785,0-10.109,6.689-18.3,14.948-18.3H141.418c-8.255,0-14.948,8.193-14.948,18.3s6.689,18.3,14.948,18.3Z" transform="translate(-105.837 -1388.709)"/><ellipse class="ad" cx="14.948" cy="18.302" rx="14.948" ry="18.302" transform="translate(31.191 107.22)"/><path class="ae" d="M303.483,870.081l2.216-2.733h31.439l5.922-6.875a69.251,69.251,0,0,1,40.624-21.743h1.483V944.214H423.48v23.232H353.9V959.74a19.247,19.247,0,1,0-38.485,0v7.352H268.08V936.73a17.712,17.712,0,0,1,10.843-16.424l43.146-19.224a2.524,2.524,0,0,0,1.968-1.458l10.657-23.441a4.381,4.381,0,0,0-3.987-6.2Z" transform="translate(-224.343 -838.73)"/><path class="af" d="M578.687,840.81a69.263,69.263,0,0,0-40.616,21.743l-5.922,6.87H500.71l3.707-4.3c13.732-15.163,33.029-24.309,53.248-24.309Z" transform="translate(-419.02 -840.471)"/><path class="af" d="M156.589,1217.91l-44.967,19.511a18.505,18.505,0,0,0-11.331,17.163v29.83H67.58V1252.9a18.583,18.583,0,0,1,9.2-16.116l35.147-18.873Z" transform="translate(-56.554 -1156.047)"/><path class="aa" d="M268.08,1559.72h14.532a2.481,2.481,0,0,1,2.481,2.481v6.674H268.08Z" transform="translate(-224.343 -1442.092)"/><path class="aa" d="M267,1559.72h11.078a2.481,2.481,0,0,1,2.481,2.481v6.674H267Z" transform="translate(-223.439 -1442.092)"/><rect class="ag" width="24.404" height="11.716" rx="5.858" transform="translate(164.999 108.224)"/><line class="ah" x2="132.824" transform="translate(60.75 122.82)"/><path class="ai" d="M2148.074,1532.532c-8.255,0-14.948-8.193-14.948-18.3s6.689-18.3,14.948-18.3h-10.557c-8.255,0-14.948,8.193-14.948,18.3s6.689,18.3,14.948,18.3Z" transform="translate(-1776.276 -1388.709)"/><ellipse class="aj" cx="14.948" cy="18.302" rx="14.948" ry="18.302" transform="translate(356.851 107.22)"/><ellipse class="ak" cx="9.622" cy="11.714" rx="9.622" ry="11.714" transform="translate(362.176 113.807)"/><path d="M1285.185,1479.6v7.352H1246.7V1479.6a19.247,19.247,0,1,1,38.485,0Z" transform="translate(-1043.303 -1358.582)"/><path class="h" d="M1245.335,1532.532c-8.255,0-14.948-8.193-14.948-18.3s6.689-18.3,14.948-18.3h-10.557c-8.255,0-14.948,8.193-14.948,18.3s6.689,18.3,14.948,18.3Z" transform="translate(-1020.817 -1388.709)"/><ellipse class="al" cx="14.948" cy="18.302" rx="14.948" ry="18.302" transform="translate(209.571 107.22)"/><ellipse class="am" cx="9.622" cy="11.714" rx="9.622" ry="11.714" transform="translate(214.896 113.807)"/><path class="an" d="M1238.889,1448.5v6.475h-4.09v-7.351a19.247,19.247,0,1,0-38.485,0v7.351h-9.823V1448.5c0-14.789,11.73-26.777,26.2-26.777S1238.889,1433.708,1238.889,1448.5Z" transform="translate(-992.916 -1326.606)"/><path class="ao" d="M596.715,1479.6v7.352H558.23V1479.6a19.247,19.247,0,1,1,38.485,0Z" transform="translate(-467.156 -1358.582)"/><path class="h" d="M556.882,1532.532c-8.255,0-14.948-8.193-14.948-18.3s6.689-18.3,14.948-18.3H546.328c-8.255,0-14.948,8.193-14.948,18.3s6.689,18.3,14.948,18.3Z" transform="translate(-444.686 -1388.709)"/><ellipse class="ap" cx="14.948" cy="18.302" rx="14.948" ry="18.302" transform="translate(97.248 107.22)"/><ellipse class="am" cx="9.622" cy="11.714" rx="9.622" ry="11.714" transform="translate(102.573 113.721)"/><path class="an" d="M550.4,1448.5v6.475h-4.088v-7.351a19.251,19.251,0,1,0-38.493,0v7.351H498V1448.5c0-14.789,11.73-26.777,26.2-26.777S550.4,1433.708,550.4,1448.5Z" transform="translate(-416.752 -1326.606)"/><rect class="aq" width="91.515" height="7.278" transform="translate(0 126.254)"/><path class="ar" d="M644.94,1061.388h42.2a4.159,4.159,0,0,0,4.159-4.159v-26.91H666.29a11.159,11.159,0,0,0-10.153,6.527Z" transform="translate(-539.719 -999.062)"/><path class="as" d="M680.676,1017H654.939a12.639,12.639,0,0,0-11.5,7.393l-10.8,23.676" transform="translate(-529.426 -987.915)"/><path class="at" d="M682.835,1253.762v34.331H667.123c-4-11.14-16.868-17.439-32.3-17.439V1250.08" transform="translate(-531.25 -1182.969)"/><path class="au" d="M372.1,1061.437H328.26l25.831-31.117h26.986a4.381,4.381,0,0,1,3.987,6.2L374.4,1059.961A2.529,2.529,0,0,1,372.1,1061.437Z" transform="translate(-274.705 -999.062)"/><path class="av" d="M359.375,1061.437H327l25.866-31.117h21.629a4.381,4.381,0,0,1,3.987,6.2l-8.112,17.844A12.073,12.073,0,0,1,359.375,1061.437Z" transform="translate(-273.65 -999.062)"/><path class="aw" d="M329,1061.412h42.624a3.71,3.71,0,0,0,3.377-2.175l10.342-22.748a4.381,4.381,0,0,0-3.987-6.2H355.037" transform="translate(-275.324 -999.037)"/><path class="aw" d="M452.91,1205.084l8.157-3.054h13.275" transform="translate(-379.018 -1142.758)"/><path class="ax" d="M83,1426.621v-26.778a2.873,2.873,0,0,1,2.842-2.9H107.85a2.873,2.873,0,0,1,2.842,2.9v26.778a2.873,2.873,0,0,1-2.842,2.9H85.835A2.873,2.873,0,0,1,83,1426.621Z" transform="translate(-69.458 -1305.869)"/><circle class="ay" cx="0.829" cy="0.829" r="0.829" transform="translate(36.994 93.156)"/><circle class="ay" cx="0.829" cy="0.829" r="0.829" transform="translate(16.103 93.156)"/><circle class="ay" cx="0.829" cy="0.829" r="0.829" transform="translate(21.325 93.156)"/><circle class="ay" cx="0.829" cy="0.829" r="0.829" transform="translate(26.549 93.156)"/><circle class="ay" cx="0.829" cy="0.829" r="0.829" transform="translate(31.772 93.156)"/><circle class="ay" cx="0.829" cy="0.829" r="0.829" transform="translate(34.384 95.851)"/><circle class="ay" cx="0.829" cy="0.829" r="0.829" transform="translate(18.715 95.851)"/><circle class="ay" cx="0.829" cy="0.829" r="0.829" transform="translate(23.937 95.851)"/><circle class="ay" cx="0.829" cy="0.829" r="0.829" transform="translate(29.16 95.851)"/><circle class="ay" cx="0.829" cy="0.829" r="0.829" transform="translate(36.994 98.547)"/><circle class="ay" cx="0.829" cy="0.829" r="0.829" transform="translate(16.103 98.547)"/><circle class="ay" cx="0.829" cy="0.829" r="0.829" transform="translate(21.325 98.547)"/><circle class="ay" cx="0.829" cy="0.829" r="0.829" transform="translate(26.549 98.547)"/><circle class="ay" cx="0.829" cy="0.829" r="0.829" transform="translate(31.772 98.547)"/><circle class="ay" cx="0.829" cy="0.829" r="0.829" transform="translate(34.384 101.243)"/><circle class="ay" cx="0.829" cy="0.829" r="0.829" transform="translate(18.715 101.243)"/><circle class="ay" cx="0.829" cy="0.829" r="0.829" transform="translate(23.937 101.243)"/><circle class="ay" cx="0.829" cy="0.829" r="0.829" transform="translate(29.16 101.243)"/><circle class="az" cx="0.829" cy="0.829" r="0.829" transform="translate(36.994 103.939)"/><circle class="az" cx="0.829" cy="0.829" r="0.829" transform="translate(16.103 103.939)"/><circle class="az" cx="0.829" cy="0.829" r="0.829" transform="translate(21.325 103.939)"/><circle class="az" cx="0.829" cy="0.829" r="0.829" transform="translate(26.549 103.939)"/><circle class="az" cx="0.829" cy="0.829" r="0.829" transform="translate(31.772 103.939)"/><circle class="az" cx="0.829" cy="0.829" r="0.829" transform="translate(34.384 106.635)"/><circle class="az" cx="0.829" cy="0.829" r="0.829" transform="translate(18.715 106.635)"/><circle class="az" cx="0.829" cy="0.829" r="0.829" transform="translate(23.937 106.635)"/><circle class="az" cx="0.829" cy="0.829" r="0.829" transform="translate(29.16 106.635)"/><circle class="az" cx="0.829" cy="0.829" r="0.829" transform="translate(36.994 109.331)"/><circle class="az" cx="0.829" cy="0.829" r="0.829" transform="translate(16.103 109.331)"/><circle class="az" cx="0.829" cy="0.829" r="0.829" transform="translate(21.325 109.331)"/><circle class="az" cx="0.829" cy="0.829" r="0.829" transform="translate(26.549 109.331)"/><circle class="az" cx="0.829" cy="0.829" r="0.829" transform="translate(31.772 109.331)"/><circle class="az" cx="0.829" cy="0.829" r="0.829" transform="translate(34.384 112.026)"/><circle class="az" cx="0.829" cy="0.829" r="0.829" transform="translate(18.715 112.026)"/><circle class="az" cx="0.829" cy="0.829" r="0.829" transform="translate(23.937 112.026)"/><circle class="az" cx="0.829" cy="0.829" r="0.829" transform="translate(29.16 112.026)"/><circle class="az" cx="0.829" cy="0.829" r="0.829" transform="translate(36.994 114.723)"/><circle class="az" cx="0.829" cy="0.829" r="0.829" transform="translate(16.103 114.723)"/><circle class="az" cx="0.829" cy="0.829" r="0.829" transform="translate(21.325 114.723)"/><circle class="az" cx="0.829" cy="0.829" r="0.829" transform="translate(26.549 114.723)"/><circle class="az" cx="0.829" cy="0.829" r="0.829" transform="translate(31.772 114.723)"/><circle class="az" cx="0.829" cy="0.829" r="0.829" transform="translate(34.384 117.418)"/><circle class="az" cx="0.829" cy="0.829" r="0.829" transform="translate(18.715 117.418)"/><circle class="az" cx="0.829" cy="0.829" r="0.829" transform="translate(23.937 117.418)"/><circle class="az" cx="0.829" cy="0.829" r="0.829" transform="translate(29.16 117.418)"/><circle class="az" cx="0.829" cy="0.829" r="0.829" transform="translate(36.994 120.113)"/><circle class="az" cx="0.829" cy="0.829" r="0.829" transform="translate(16.103 120.113)"/><circle class="az" cx="0.829" cy="0.829" r="0.829" transform="translate(21.325 120.113)"/><circle class="az" cx="0.829" cy="0.829" r="0.829" transform="translate(26.549 120.113)"/><circle class="az" cx="0.829" cy="0.829" r="0.829" transform="translate(31.772 120.113)"/><rect class="ba" width="20.053" height="3.434" transform="translate(133.648 122.82)"/><g transform="translate(108.952 33.412)"><g transform="translate(12.621 9.668)"><path class="bb" d="M751.218,1102.8h16.374a7.588,7.588,0,0,1,7.588,7.588v7.5a4.194,4.194,0,0,1-4.195,4.191H745.17v-13.236A6.048,6.048,0,0,1,751.218,1102.8Z" transform="translate(-745.17 -1102.797)"/><path class="bc" d="M810.013,1102.783a2.366,2.366,0,0,1-.423,1.142,2.821,2.821,0,0,1-2.325,1.16h-1.615l-2.356,16.982h-.816l2.359-17.029a3.307,3.307,0,0,1-2.708-2.255h.839a2.64,2.64,0,0,0,2.457,1.485h1.847a2,2,0,0,0,1.656-.816,1.538,1.538,0,0,0,.271-.672Z" transform="translate(-792.837 -1102.78)"/></g><g transform="translate(0 9.663)"><path class="r" d="M784.119,1102.75a6.009,6.009,0,0,1,5.966,6.007v8.717c0,5.772-1.958,11.016-10.226,10.452L763,1124.773c1.155-.029,2.087-2.168,2.087-4.8s-.946-4.8-2.111-4.8l16.072.086v-7.593a4.894,4.894,0,0,1,4.935-4.894Z" transform="translate(-747.453 -1102.75)"/><path class="bd" d="M2.111,0C3.277,0,4.222,2.152,4.222,4.806S3.277,9.613,2.111,9.613,0,7.461,0,4.806.945,0,2.111,0Z" transform="translate(13.416 12.406)"/><path class="be" d="M684.6,1182.277c0,1.922-.6,3.478-1.341,3.478H668.952a1.142,1.142,0,0,1-1.142-1.142,1.118,1.118,0,0,1,.62-1.018l6.239-3.131a15.536,15.536,0,0,1,7-1.664h1.594C684,1178.8,684.6,1180.356,684.6,1182.277Z" transform="translate(-667.81 -1166.392)"/><path class="a" d="M686.608,1199.48l-4.653,1.907a1.375,1.375,0,0,0-.855,1.274" transform="translate(-678.932 -1183.699)"/><path class="a" d="M710.7,1202l-3.64,1.491a1.375,1.375,0,0,0-.855,1.274" transform="translate(-699.945 -1185.807)"/></g><g transform="translate(22.647 5.851)"><path class="be" d="M812.9,1083.63h0a1.7,1.7,0,0,1-.142.245,2,2,0,0,1-1.656.816h-1.85a2.939,2.939,0,0,1-1.046-.191,2.489,2.489,0,0,1-1.333-1.142,2.719,2.719,0,0,1-.163-.948v-.379l5.248-2.641.941,2.955A2.109,2.109,0,0,1,812.9,1083.63Z" transform="translate(-806.695 -1079.39)"/><path class="bf" d="M811.945,1079.905a1.481,1.481,0,0,1-.233.8l-3.589,3.86a2.447,2.447,0,0,1-1.409-1.294,3.262,3.262,0,0,1-.093-.788v-.378l5.248-2.641A1.486,1.486,0,0,1,811.945,1079.905Z" transform="translate(-806.62 -1079.448)"/></g><g transform="translate(20.135)"><g transform="translate(7.768 3.225)"><path class="bg" d="M838.84,1063.29h1.168a1.163,1.163,0,0,1,1.163,1.163v.481a1.163,1.163,0,0,1-1.163,1.163h-1.163v-2.808Z" transform="translate(-838.84 -1063.29)"/><path class="bh" d="M842.24,1068.68a.86.86,0,0,1,.86-.86" transform="translate(-841.685 -1067.081)"/></g><path class="bg" d="M804.953,1058.035v3.012l-1.279,1.547a2.5,2.5,0,0,1-1.93.917H799.7a1.374,1.374,0,0,1-1.305-1.751l1.261-4.509Z" transform="translate(-797.185 -1055.011)"/><path class="bi" d="M806.311,1060.83h-.685a.682.682,0,0,0-.682.683v2.131l-1.276,1.543a2.5,2.5,0,0,1-1.932.917H799.7a1.373,1.373,0,0,1-1.305-1.749l.37-1.327h4.974a.592.592,0,0,0,.591-.6v-.408a1.547,1.547,0,0,0-.374-1,1.8,1.8,0,0,0-.93-.679Z" transform="translate(-797.179 -1057.605)"/><g transform="translate(2.208 2.851)"><path class="bh" d="M805.37,1061l.954.184s-.635,2.519-.015,2.574" transform="translate(-805.27 -1061)"/><ellipse class="h" cx="0.21" cy="0.369" rx="0.21" ry="0.369" transform="translate(2.219 0.884)"/><ellipse class="h" cx="0.21" cy="0.369" rx="0.21" ry="0.369" transform="translate(0 0.884)"/><path class="bh" d="M818.52,1062.6s.816.134,1.255.225" transform="translate(-816.275 -1062.339)"/></g><path class="r" d="M791.529,1045.447a.326.326,0,0,1-.3-.375.361.361,0,0,1,.419-.267l2.354.351a3.018,3.018,0,0,1,2.888-1.619c3.469.307,3.469,3.212,3.469,3.212Z" transform="translate(-791.227 -1043.524)"/></g></g></g><g transform="translate(429.875 172.572)"><rect class="u" width="48.899" height="45.928" transform="translate(0.358 25.123)"/><g transform="translate(22.57 119.069)"><path class="h" d="M2779.383,1932.45l23.872.349-.371,1.591a5.861,5.861,0,0,1-5.71,4.531H2773.79Z" transform="translate(-2773.696 -1909.222)"/><path class="h" d="M2801.475,1940.532l.1,1.651a.489.489,0,0,1-.489.489h-1.6a.49.49,0,0,1-.35-.14.47.47,0,0,1-.146-.341.489.489,0,0,0-.489-.489h-1.584a.5.5,0,0,0-.349.14.467.467,0,0,0-.146.341.489.489,0,0,1-.489.489h-1.6a.5.5,0,0,1-.351-.14.461.461,0,0,1-.145-.341.489.489,0,0,0-.49-.489h-1.584a.5.5,0,0,0-.347.142.471.471,0,0,0-.147.341.489.489,0,0,1-.489.49h-1.6a.5.5,0,0,1-.35-.142.469.469,0,0,1-.146-.339.489.489,0,0,0-.489-.481H2786.6a.5.5,0,0,0-.35.14.491.491,0,0,0-.145.343.489.489,0,0,1-.489.481h-1.6a.5.5,0,0,1-.349-.142.469.469,0,0,1-.147-.339.489.489,0,0,0-.489-.48h-1.584a.5.5,0,0,0-.348.142.468.468,0,0,0-.146.339.49.49,0,0,1-.489.49h-1.6a.5.5,0,0,1-.351-.14.479.479,0,0,1-.146-.341.489.489,0,0,0-.489-.489h-1.583a.5.5,0,0,0-.349.14.469.469,0,0,0-.146.341.489.489,0,0,1-.489.49h-1.6a.489.489,0,0,1-.489-.49v-1.7h22.111l.241-.918a7.528,7.528,0,0,1,7.265-5.2l-1.305,6.123Z" transform="translate(-2773.212 -1910.834)"/><path class="h" d="M3262.85,1812.364l2.1-22.244,1.557.489a5.864,5.864,0,0,1,4.066,6.05l-1.857,23.311Z" transform="translate(-3182.967 -1790.113)"/><path class="h" d="M3283.671,1792.431l-.124,1.6a.5.5,0,0,1-.163.338.465.465,0,0,1-.35.119.49.49,0,0,0-.519.454l-.123,1.579a.511.511,0,0,0,.112.359.47.47,0,0,0,.327.163.488.488,0,0,1,.442.532l-.124,1.6a.5.5,0,0,1-.163.338.469.469,0,0,1-.351.119.489.489,0,0,0-.519.454l-.124,1.579a.5.5,0,0,0,.115.359.466.466,0,0,0,.326.163.489.489,0,0,1,.441.532l-.123,1.6a.5.5,0,0,1-.163.338.477.477,0,0,1-.35.119.49.49,0,0,0-.519.454l-.124,1.579a.5.5,0,0,0,.113.359.475.475,0,0,0,.326.171.489.489,0,0,1,.44.532l-.124,1.6a.5.5,0,0,1-.163.336.489.489,0,0,1-.353.121.49.49,0,0,0-.516.454l-.124,1.579a.511.511,0,0,0,.113.359.471.471,0,0,0,.326.163.489.489,0,0,1,.442.532l-.124,1.6a.5.5,0,0,1-.163.338.478.478,0,0,1-.351.119.49.49,0,0,0-.519.453l-.122,1.579a.51.51,0,0,0,.113.359.47.47,0,0,0,.326.163.489.489,0,0,1,.442.532l-.124,1.6a.489.489,0,0,1-.519.457l-1.692-.134,1.754-22.041-.907-.287a7.526,7.526,0,0,1-4.609-7.655l6,1.795v-.013l1.655.036A.489.489,0,0,1,3283.671,1792.431Z" transform="translate(-3193.592 -1790.08)"/></g><g transform="translate(15.507 14.523)"><path class="s" d="M2797.031,1159.7v31.065h-26.788c-4.493,0-8.83-2.749-8.646-7.994l-16.622,22.589h0c-.979,1.284-5.076-.163-9.174-3.237s-6.642-6.617-5.674-7.906l-.015.015,28.419-38.55a9.271,9.271,0,0,1,7.614-3.774h23.1A7.786,7.786,0,0,1,2797.031,1159.7Z" transform="translate(-2729.921 -1151.475)"/><path class="r" d="M2808.06,1277.051l23.874.351,10.01-42.035c0,16.325,8.4,31.218,26.371,37.224l13.943,3.483,2.61-22.1a29.516,29.516,0,0,1-21.79-28.487V1185.1l-12.021-19.667,7.071-12.4a8.668,8.668,0,0,1,1.888-1.984,7.8,7.8,0,0,0-2.937-1.507,4.659,4.659,0,0,0-2.345,1.818l-5.958,10.342-6.335-10.35a4.635,4.635,0,0,0-3.863-2.075h-6.648a8.635,8.635,0,0,1,7.117,3.752l7.732,12.114-11.732,20.363a2.9,2.9,0,0,1-4.2.936,10.9,10.9,0,0,1-3.4-5.794.291.291,0,0,0-.568.016Zm48.688-88.988h-14.194a2.557,2.557,0,0,1-2.221-3.823l8.794-15.427,9.789,15.32a2.555,2.555,0,0,1-2.168,3.93Z" transform="translate(-2795.312 -1149.28)"/><line class="a" y1="13.396" x2="9.045" transform="translate(30.99 18.813)"/><path class="bj" d="M3013.44,1518.649l5.572-30.859h4.341" transform="translate(-2967.184 -1432.563)"/></g><g transform="translate(0 60.001)"><path class="be" d="M2661.916,1436.421c-1.762,1.822-3.387,3.571-3.78,3.854-2.635,1.894-7,4.694-15.142,4.692-2.083,0-6.02-3.832-7.918-5.953a.949.949,0,0,1,.6-1.529c2.937.052,7.179-.289,8.131-1.706,1.729-2.55-4.025-.933-3.858-3.4,0,0,8.157-2.338,11.2-4.345a21.386,21.386,0,0,0,5.108,5.175A22.916,22.916,0,0,0,2661.916,1436.421Z" transform="translate(-2634.873 -1428.03)"/><path class="bk" d="M2740.611,1436.429c-.954.979-1.866,1.958-2.568,2.672l-.09-.034c-5.958-2.149-8.567-9.064-9.044-10.482h0a10.46,10.46,0,0,0,.933-.545,21.4,21.4,0,0,0,5.108,5.175A22.975,22.975,0,0,0,2740.611,1436.429Z" transform="translate(-2713.567 -1428.039)"/><path class="a" d="M2677.263,1516.91a20.391,20.391,0,0,1-6.753,1.029" transform="translate(-2664.696 -1502.409)"/><path class="a" d="M2664.906,1506.27a23.287,23.287,0,0,1-7.187,1.029" transform="translate(-2653.992 -1493.505)"/><path class="a" d="M2655.451,1495.63a27.979,27.979,0,0,1-7.831,1.029" transform="translate(-2645.541 -1484.601)"/></g><g transform="translate(60.41 5.753)"><path class="bg" d="M3005.15,1104.292v-4.529l6.746-4.244,5.08,8.773Z" transform="translate(-3005.15 -1095.52)"/><path class="bb" d="M3005.374,1103.735l-.225-3.963,6.746-4.242h0a2.623,2.623,0,0,1-.581,3.322Z" transform="translate(-3005.15 -1095.528)"/></g><g transform="translate(56.604)"><path class="be" d="M2992.73,1066.068a2.106,2.106,0,0,1-2.1,2.1h-.7a2.651,2.651,0,0,1-2.633,2.336h-1.659a2.814,2.814,0,0,1-2.815-2.814v-.476h-.59a.4.4,0,0,1-.374-.545l.964-2.477a4.126,4.126,0,0,1,4.152-3.935h.545a3.657,3.657,0,0,1,3.426,2.424l.519,1.447A2.107,2.107,0,0,1,2992.73,1066.068Z" transform="translate(-2981.822 -1060.26)"/><path class="a" d="M3030.86,1092.015a1.084,1.084,0,0,1,1.083-1.085" transform="translate(-3022.859 -1085.926)"/><path class="a" d="M2992.81,1079.76a6.215,6.215,0,0,1,2.013.326" transform="translate(-2991.017 -1076.579)"/><ellipse class="h" cx="0.395" cy="0.54" rx="0.395" ry="0.54" transform="translate(2.08 4.511)"/><path class="a" d="M3023.89,1084.228a1.258,1.258,0,0,1,1.258-1.258h1.166" transform="translate(-3017.026 -1079.265)"/></g></g><g transform="translate(265.903 179.514)"><g transform="translate(81.954 11.046)"><path class="aj" d="M2341.87,1520.323c1.9-1.042,7.319,4.4,6.567,5.338-1.089,1.36-3.571-.91-3.831.569-.3,1.739,7.849,9.36,6.472,10.951s-9.756,3.018-13.215.6c-1.883-1.318-5.612-5.988-7.733-9.136C2330.125,1528.644,2337.332,1522.806,2341.87,1520.323Z" transform="translate(-2297.829 -1463.142)"/><path class="bl" d="M2389.162,1612.344c-.777-.543-3.615-3.384-4.692-4.384" transform="translate(-2343.304 -1536.591)"/><path class="bl" d="M2406.236,1606.036c-.777-.545-4.7-4.188-5.736-5.286" transform="translate(-2356.719 -1530.557)"/><path class="bl" d="M2423.451,1599.253c-.777-.545-4.332-4.633-5.371-5.733" transform="translate(-2371.43 -1524.507)"/><path class="r" d="M2179.5,1226.131c-6.458,10.014-18.067,11.19-18.067,11.19l-28.018-50.927a10.337,10.337,0,0,1,4.111-14.031l1.064-.582a10.339,10.339,0,0,1,14.031,4.113Z" transform="translate(-2132.146 -1170.513)"/></g><g transform="translate(0 11.262)"><path class="bb" d="M1731.205,1184.162l-17.442,34.514,15.173,26.689v54.387a87.657,87.657,0,0,0-11.76-.76,81.9,81.9,0,0,0-15.989,1.468V1251.37l-11.376-19.612-30.54,65.937h0a69,69,0,0,0-11.083-.868,61.268,61.268,0,0,0-18.282,2.563q-.086-.979-.086-1.945a21.668,21.668,0,0,1,2.562-10.223l52.086-107.6c2.924-5.384,6.663-7.785,12.786-7.785h26.373A8.494,8.494,0,0,1,1731.205,1184.162Z" transform="translate(-1629.82 -1171.84)"/><line class="bm" y1="8.799" x2="4.185" transform="translate(60.003 51.123)"/><path class="bm" d="M1885.815,1365.43l42.127,12.316-1.553,3.281-42.128-12.487" transform="translate(-1842.748 -1333.846)"/><path class="bm" d="M1873.941,1399.9a9.167,9.167,0,0,1-11.391,6.185" transform="translate(-1824.58 -1362.693)"/></g><g transform="translate(74.081 5.294)"><path class="s" d="M2083.89,1141.23l8.627-5.97,4.824,5.811v5.25a2.73,2.73,0,0,1-4.435,2.121Z" transform="translate(-2083.89 -1135.26)"/><path class="bn" d="M2091.05,1145.885l-2.69-2.232,7.757-5.513,3.216,3.871Z" transform="translate(-2087.631 -1137.67)"/></g><g transform="translate(80.532)"><path class="s" d="M2132.369,1120.7l-1.795-.036a3.753,3.753,0,0,1-3.669-3.888l.046-1.212h-1.631a1.887,1.887,0,0,1-1.889-1.889v-1.015a1.887,1.887,0,0,1,1.889-1.889h1.015a1.862,1.862,0,0,1,.925.241,4.177,4.177,0,0,1,4.02-2.964c3,0,3.813,1.552,4.09,3.6l.67,4.943a3.622,3.622,0,0,1-3.671,4.106Z" transform="translate(-2123.43 -1107.194)"/><path class="h" d="M2135.675,1107.82l.362.652h0a.6.6,0,0,0,.607-.6v-1.529a2.467,2.467,0,0,1,2.483-2.447h0a4.556,4.556,0,0,1,4.206,2.774l.016.037v-.454a3.471,3.471,0,0,0-3.493-3.446h-3.486a3.47,3.47,0,0,0-3.491,3.39l-.008.514h.866A2.206,2.206,0,0,1,2135.675,1107.82Z" transform="translate(-2131.33 -1102.809)"/><path class="bo" d="M2137.678,1136.171a.91.91,0,0,0-.908-.911" transform="translate(-2134.593 -1129.966)"/><path class="bo" d="M2171.87,1160.87a1.157,1.157,0,0,0,1.535.547" transform="translate(-2163.967 -1151.397)"/><path class="bo" d="M2183.457,1128.37h-1.429a.99.99,0,0,0-.992.946,5.226,5.226,0,0,0,.531,3.149" transform="translate(-2171.618 -1124.2)"/><ellipse class="h" cx="0.367" cy="0.635" rx="0.367" ry="0.635" transform="translate(10.316 5.332)"/><ellipse class="h" cx="0.367" cy="0.635" rx="0.367" ry="0.635" transform="translate(7.05 5.332)"/><line class="bo" x2="1.524" transform="translate(6.379 4.17)"/></g><g transform="translate(0.098 136.252)"><path class="bk" d="M1661.888,1946.4H1631.8a21.678,21.678,0,0,1-1.379-5.888,61.283,61.283,0,0,1,18.282-2.563,68.993,68.993,0,0,1,11.083.868Z" transform="translate(-1630.42 -1937.949)"/><path class="bk" d="M2098.47,1957.5h-31.14v-4.818a81.666,81.666,0,0,1,15.989-1.468,87.65,87.65,0,0,1,11.759.76v.036Z" transform="translate(-1996.049 -1949.053)"/></g><g transform="translate(88.617 70.937)"><rect class="v" width="60.787" height="44.073" transform="translate(8.516)"/><rect class="ak" width="43.422" height="0.863" transform="translate(8.934 4.922)"/><rect class="ak" width="43.422" height="0.863" transform="translate(8.934 38.007)"/><path class="x" d="M2247.474,1619.37l-19.734,23.64v-23.64Z" transform="translate(-2218.808 -1606.031)"/><rect class="x" width="16.579" height="43.167" transform="translate(52.356 0.452)"/><path class="am" d="M2493.9,1600.865v.865h16.517v-.865Zm0-33.085v.863h16.517v-.863Z" transform="translate(-2441.544 -1562.858)"/><rect class="v" width="27.076" height="29.311" transform="translate(0 44.083)"/><circle class="r" cx="0.855" cy="0.855" r="0.855" transform="translate(18.431 46.688)"/><circle class="r" cx="0.855" cy="0.855" r="0.855" transform="translate(13.042 46.688)"/><circle class="r" cx="0.855" cy="0.855" r="0.855" transform="translate(23.818 46.688)"/><circle class="r" cx="0.855" cy="0.855" r="0.855" transform="translate(7.655 46.688)"/><circle class="r" cx="0.855" cy="0.855" r="0.855" transform="translate(15.737 49.498)"/><circle class="r" cx="0.855" cy="0.855" r="0.855" transform="translate(10.348 49.498)"/><circle class="r" cx="0.855" cy="0.855" r="0.855" transform="translate(21.124 49.498)"/><circle class="r" cx="0.855" cy="0.855" r="0.855" transform="translate(18.431 52.305)"/><circle class="r" cx="0.855" cy="0.855" r="0.855" transform="translate(13.042 52.305)"/><circle class="r" cx="0.855" cy="0.855" r="0.855" transform="translate(23.818 52.305)"/><circle class="r" cx="0.855" cy="0.855" r="0.855" transform="translate(7.655 52.305)"/><circle class="r" cx="0.855" cy="0.855" r="0.855" transform="translate(15.737 55.115)"/><circle class="r" cx="0.855" cy="0.855" r="0.855" transform="translate(10.348 55.115)"/><circle class="r" cx="0.855" cy="0.855" r="0.855" transform="translate(21.124 55.115)"/><circle class="r" cx="0.855" cy="0.855" r="0.855" transform="translate(18.431 57.923)"/><circle class="r" cx="0.855" cy="0.855" r="0.855" transform="translate(13.042 57.923)"/><circle class="r" cx="0.855" cy="0.855" r="0.855" transform="translate(23.818 57.923)"/><circle class="r" cx="0.855" cy="0.855" r="0.855" transform="translate(7.655 57.923)"/><circle class="r" cx="0.855" cy="0.855" r="0.855" transform="translate(15.737 60.73)"/><circle class="r" cx="0.855" cy="0.855" r="0.855" transform="translate(10.348 60.73)"/><circle class="r" cx="0.855" cy="0.855" r="0.855" transform="translate(21.124 60.73)"/><circle class="r" cx="0.855" cy="0.855" r="0.855" transform="translate(18.431 63.54)"/><circle class="r" cx="0.855" cy="0.855" r="0.855" transform="translate(13.042 63.54)"/><circle class="r" cx="0.855" cy="0.855" r="0.855" transform="translate(23.818 63.54)"/><circle class="r" cx="0.855" cy="0.855" r="0.855" transform="translate(7.655 63.54)"/><circle class="r" cx="0.855" cy="0.855" r="0.855" transform="translate(15.737 66.348)"/><circle class="r" cx="0.855" cy="0.855" r="0.855" transform="translate(10.348 66.348)"/><circle class="r" cx="0.855" cy="0.855" r="0.855" transform="translate(21.124 66.348)"/><circle class="r" cx="0.855" cy="0.855" r="0.855" transform="translate(18.431 69.155)"/><circle class="r" cx="0.855" cy="0.855" r="0.855" transform="translate(13.042 69.155)"/><circle class="r" cx="0.855" cy="0.855" r="0.855" transform="translate(23.818 69.155)"/><circle class="r" cx="0.855" cy="0.855" r="0.855" transform="translate(7.655 69.155)"/><circle class="r" cx="0.855" cy="0.855" r="0.855" transform="translate(2.196 46.688)"/><circle class="r" cx="0.855" cy="0.855" r="0.855" transform="translate(4.89 49.498)"/><circle class="r" cx="0.855" cy="0.855" r="0.855" transform="translate(2.196 52.305)"/><circle class="r" cx="0.855" cy="0.855" r="0.855" transform="translate(4.89 55.115)"/><circle class="r" cx="0.855" cy="0.855" r="0.855" transform="translate(2.196 57.923)"/><circle class="r" cx="0.855" cy="0.855" r="0.855" transform="translate(4.89 60.73)"/><circle class="r" cx="0.855" cy="0.855" r="0.855" transform="translate(2.196 63.54)"/><circle class="r" cx="0.855" cy="0.855" r="0.855" transform="translate(4.89 66.348)"/><circle class="r" cx="0.855" cy="0.855" r="0.855" transform="translate(2.196 69.155)"/><rect class="v" width="58.885" height="29.311" transform="translate(27.076 44.083)"/></g><g transform="translate(54.571 11.075)"><path class="s" d="M2191.69,1550.108c-2.553,2.175-7.5,6.058-9.937,5.728-9.51-1.29-14.16-5.253-16.933-7.88a24.313,24.313,0,0,1-2.349-2.875h0l-.38-.506a31.242,31.242,0,0,0,8.218-3.478,32.522,32.522,0,0,0,6.852-5.058,17.355,17.355,0,0,0,2.4,1.724,61.542,61.542,0,0,0,7.751,3.844c-.2,2.91-6.689.364-5.082,3.615.9,1.808,5.547,2.844,8.973,3.246a.93.93,0,0,1,.486,1.638Z" transform="translate(-2129.822 -1476.434)"/><path class="a" d="M2253.16,1635.63a29.213,29.213,0,0,0,8.484,2.375" transform="translate(-2206.034 -1559.776)"/><path class="a" d="M2266.68,1624.81a31.5,31.5,0,0,0,8.81,2.447" transform="translate(-2217.348 -1550.722)"/><path class="a" d="M2280.2,1614a32.688,32.688,0,0,0,8.986,2.447" transform="translate(-2228.662 -1541.675)"/><path class="h" d="M2179.538,1537.773a30.4,30.4,0,0,1-7.789,4.678,28.323,28.323,0,0,1-9.3,2.631h0l-.38-.506a31.239,31.239,0,0,0,8.218-3.478,32.528,32.528,0,0,0,6.852-5.058A17.351,17.351,0,0,0,2179.538,1537.773Z" transform="translate(-2129.805 -1476.434)"/><path class="r" d="M1965.583,1186.61a10.411,10.411,0,0,1,4.142-14.13l.932-.509a10.41,10.41,0,0,1,14.13,4.141l28.179,51.526c.718,1.241-2.945,4.7-8.177,7.719s-10.229,4.464-10.944,3.222Z" transform="translate(-1964.305 -1170.692)"/></g></g><g transform="translate(554.052 129.705)"><path class="aq" d="M3692.526,1006.9l-81.615-.029s-1.416-10.243,8.149-9.9c8.335.3,6.852-.392,10.327-5.764s8.061-7.786,17.237-6.405c9.332,1.4,8.681-10.549,20.19-10.672C3680.386,973.981,3692.526,1006.9,3692.526,1006.9Z" transform="translate(-3575.786 -945.312)"/><g transform="translate(80.775)"><path class="t" d="M3891.1,859.1l17.53-61.585,18.434,61.585Z" transform="translate(-3891.1 -797.51)"/><path class="bi" d="M3969.573,833.22l-10.282,14.667V859.1h-.815V830.554l-7.326-5.875.242-.852,7.084,5.681V798.942l.408-1.432.408,1.362v12.117l2.772-2.858.268.9-3.04,3.136v34.3l9.983-14.238Z" transform="translate(-3941.352 -797.51)"/></g><g transform="translate(0 148.737)"><path class="bp" d="M3396,1754.464a23.42,23.42,0,0,1,33.638-13.749,26.34,26.34,0,0,1,51.284-11.943,15.343,15.343,0,0,1,3.047-.3c7.832,0,14.185,5.82,14.185,13s-6.35,13-14.185,13Z" transform="translate(-3396 -1709.179)"/><line class="a" y1="28.177" transform="translate(57.999 16.984)"/><line class="a" x1="6.04" y2="9.551" transform="translate(57.999 24.11)"/><line class="a" x2="8.262" y2="6.219" transform="translate(49.737 35.438)"/></g></g><path class="bq" d="M447.87,207.832v-.326a15.215,15.215,0,0,1,14.357-9.841,15.594,15.594,0,0,1,5.824,1.119,1.2,1.2,0,0,0,1.654-1.1v-.02a14.368,14.368,0,0,1,.956-5.169,15.4,15.4,0,0,1,28.554,0c.051.127.1.256.144.387.184-.132.37-.263.561-.387a15.618,15.618,0,0,1,17.06,0,14.672,14.672,0,0,1,6.7,12.259v.021a.85.85,0,0,0,1.385.641,18.439,18.439,0,0,1,11.6-3.968,17.867,17.867,0,0,1,14.011,6.384Z" transform="translate(-374.801 -153.443)"/><path class="bq" d="M585.554,216.3v-.437a20.375,20.375,0,0,0-19.226-13.178,20.882,20.882,0,0,0-7.8,1.5,1.608,1.608,0,0,1-2.215-1.473v-.026a19.24,19.24,0,0,0-1.28-6.921,20.624,20.624,0,0,0-38.238,0c-.068.17-.131.343-.192.518-.247-.177-.5-.352-.751-.518a20.915,20.915,0,0,0-22.846,0,19.647,19.647,0,0,0-8.977,16.416v.028a1.138,1.138,0,0,1-1.855.859,24.692,24.692,0,0,0-15.54-5.313A23.927,23.927,0,0,0,447.87,216.3Z" transform="translate(50.199 -216.443)"/></g></g></svg>