<svg xmlns="http://www.w3.org/2000/svg" width="14" height="14" viewBox="0 0 14 14"><defs><style>.a{fill:none;}.b{fill:#ac2022;}</style></defs><g transform="translate(-19 -11)"><rect class="a" width="14" height="14" transform="translate(19 11)"/><path class="b" d="M13.611,7H11.667V9.333l-.778-.518-.778.518V7H8.167a.39.39,0,0,0-.389.389v4.667a.39.39,0,0,0,.389.389h5.444A.39.39,0,0,0,14,12.056V7.389A.39.39,0,0,0,13.611,7ZM4.278,5.444H9.722a.39.39,0,0,0,.389-.389V.389A.39.39,0,0,0,9.722,0H7.778V2.333L7,1.816l-.778.518V0H4.278a.39.39,0,0,0-.389.389V5.056A.39.39,0,0,0,4.278,5.444ZM5.833,7H3.889V9.333l-.778-.518-.778.518V7H.389A.39.39,0,0,0,0,7.389v4.667a.39.39,0,0,0,.389.389H5.833a.39.39,0,0,0,.389-.389V7.389A.39.39,0,0,0,5.833,7Z" transform="translate(19 11.273)"/></g></svg>