<svg xmlns="http://www.w3.org/2000/svg" width="21.388" height="24.952" viewBox="0 0 21.388 24.952">
  <g id="rotate" transform="translate(0 0)">
    <path id="Path_18104" data-name="Path 18104" d="M176.694,226A10.725,10.725,0,0,0,166,236.694v3.565h21.388v-3.565A10.725,10.725,0,0,0,176.694,226Zm0,0" transform="translate(-166 -215.306)" fill="#4fb0f0"/>
    <path id="Path_18105" data-name="Path 18105" d="M221.694,141.347A5.347,5.347,0,1,1,216.347,136,5.339,5.339,0,0,1,221.694,141.347Zm0,0" transform="translate(-205.653 -136)" fill="#4fb0f0"/>
    <path id="Path_18106" data-name="Path 18106" d="M261.347,141.347A5.339,5.339,0,0,1,256,146.694V136A5.339,5.339,0,0,1,261.347,141.347Zm0,0" transform="translate(-245.306 -136)" fill="#007dd0"/>
    <path id="Path_18107" data-name="Path 18107" d="M266.694,236.694v3.565H256V226A10.725,10.725,0,0,1,266.694,236.694Zm0,0" transform="translate(-245.306 -215.306)" fill="#007dd0"/>
  </g>
</svg>
